<?xml version="1.0" encoding="UTF-8"?>
<svg xmlns="http://www.w3.org/2000/svg" xmlns:xlink="http://www.w3.org/1999/xlink" width="432pt" height="259pt" viewBox="0 0 432 259" version="1.1">
<defs>
<g>
<symbol overflow="visible" id="glyph0-0">
<path style="stroke:none;" d=""/>
</symbol>
<symbol overflow="visible" id="glyph0-1">
<path style="stroke:none;" d="M 3.03125 -7.953125 C 2.296875 -7.953125 1.640625 -7.625 1.234375 -7.078125 C 0.71875 -6.375 0.46875 -5.328125 0.46875 -3.84375 C 0.46875 -1.171875 1.359375 0.25 3.03125 0.25 C 4.671875 0.25 5.578125 -1.171875 5.578125 -3.78125 C 5.578125 -5.328125 5.328125 -6.359375 4.8125 -7.078125 C 4.40625 -7.640625 3.765625 -7.953125 3.03125 -7.953125 Z M 3.03125 -7.09375 C 4.0625 -7.09375 4.59375 -6.03125 4.59375 -3.875 C 4.59375 -1.609375 4.078125 -0.546875 3 -0.546875 C 1.984375 -0.546875 1.46875 -1.65625 1.46875 -3.84375 C 1.46875 -6.03125 1.984375 -7.09375 3.03125 -7.09375 Z M 3.03125 -7.09375 "/>
</symbol>
<symbol overflow="visible" id="glyph0-2">
<path style="stroke:none;" d="M 5.5625 -0.953125 L 1.46875 -0.953125 C 1.5625 -1.609375 1.90625 -2.03125 2.875 -2.625 L 3.96875 -3.234375 C 5.0625 -3.84375 5.625 -4.65625 5.625 -5.625 C 5.625 -6.296875 5.359375 -6.90625 4.890625 -7.34375 C 4.4375 -7.75 3.859375 -7.953125 3.125 -7.953125 C 2.140625 -7.953125 1.390625 -7.59375 0.96875 -6.921875 C 0.6875 -6.5 0.578125 -6 0.546875 -5.203125 L 1.515625 -5.203125 C 1.546875 -5.734375 1.609375 -6.0625 1.75 -6.328125 C 2 -6.8125 2.515625 -7.109375 3.09375 -7.109375 C 3.96875 -7.109375 4.625 -6.46875 4.625 -5.609375 C 4.625 -4.96875 4.265625 -4.421875 3.578125 -4.03125 L 2.5625 -3.4375 C 0.9375 -2.5 0.46875 -1.75 0.375 -0.015625 L 5.5625 -0.015625 Z M 5.5625 -0.953125 "/>
</symbol>
<symbol overflow="visible" id="glyph0-3">
<path style="stroke:none;" d="M 3.59375 -1.921875 L 3.59375 0 L 4.5625 0 L 4.5625 -1.921875 L 5.71875 -1.921875 L 5.71875 -2.796875 L 4.5625 -2.796875 L 4.5625 -7.953125 L 3.84375 -7.953125 L 0.3125 -2.953125 L 0.3125 -1.921875 Z M 3.59375 -2.796875 L 1.15625 -2.796875 L 3.59375 -6.296875 Z M 3.59375 -2.796875 "/>
</symbol>
<symbol overflow="visible" id="glyph0-4">
<path style="stroke:none;" d="M 5.484375 -5.890625 C 5.296875 -7.1875 4.453125 -7.953125 3.265625 -7.953125 C 2.40625 -7.953125 1.640625 -7.53125 1.171875 -6.8125 C 0.6875 -6.03125 0.46875 -5.078125 0.46875 -3.625 C 0.46875 -2.28125 0.65625 -1.4375 1.140625 -0.734375 C 1.546875 -0.09375 2.234375 0.25 3.09375 0.25 C 4.578125 0.25 5.640625 -0.859375 5.640625 -2.40625 C 5.640625 -3.875 4.65625 -4.90625 3.25 -4.90625 C 2.484375 -4.90625 1.875 -4.625 1.46875 -4.03125 C 1.46875 -6 2.09375 -7.09375 3.203125 -7.09375 C 3.890625 -7.09375 4.359375 -6.65625 4.515625 -5.890625 Z M 3.140625 -4.046875 C 4.0625 -4.046875 4.65625 -3.390625 4.65625 -2.328125 C 4.65625 -1.328125 4 -0.609375 3.109375 -0.609375 C 2.203125 -0.609375 1.515625 -1.359375 1.515625 -2.375 C 1.515625 -3.359375 2.171875 -4.046875 3.140625 -4.046875 Z M 3.140625 -4.046875 "/>
</symbol>
<symbol overflow="visible" id="glyph0-5">
<path style="stroke:none;" d="M 4.296875 -4.1875 C 5.109375 -4.6875 5.375 -5.078125 5.375 -5.828125 C 5.375 -7.078125 4.40625 -7.953125 3.03125 -7.953125 C 1.65625 -7.953125 0.6875 -7.078125 0.6875 -5.84375 C 0.6875 -5.078125 0.9375 -4.703125 1.734375 -4.1875 C 0.84375 -3.734375 0.40625 -3.09375 0.40625 -2.21875 C 0.40625 -0.765625 1.46875 0.25 3.03125 0.25 C 4.5625 0.25 5.640625 -0.765625 5.640625 -2.21875 C 5.640625 -3.09375 5.203125 -3.734375 4.296875 -4.1875 Z M 3.03125 -7.09375 C 3.84375 -7.09375 4.375 -6.59375 4.375 -5.8125 C 4.375 -5.0625 3.84375 -4.5625 3.03125 -4.5625 C 2.203125 -4.5625 1.671875 -5.0625 1.671875 -5.828125 C 1.671875 -6.59375 2.203125 -7.09375 3.03125 -7.09375 Z M 3.03125 -3.75 C 4 -3.75 4.65625 -3.109375 4.65625 -2.1875 C 4.65625 -1.234375 4 -0.609375 3 -0.609375 C 2.0625 -0.609375 1.390625 -1.25 1.390625 -2.171875 C 1.390625 -3.125 2.046875 -3.75 3.03125 -3.75 Z M 3.03125 -3.75 "/>
</symbol>
<symbol overflow="visible" id="glyph0-6">
<path style="stroke:none;" d="M 2.84375 -5.671875 L 2.84375 0 L 3.8125 0 L 3.8125 -7.953125 L 3.171875 -7.953125 C 2.84375 -6.734375 2.625 -6.5625 1.125 -6.375 L 1.125 -5.671875 Z M 2.84375 -5.671875 "/>
</symbol>
<symbol overflow="visible" id="glyph0-7">
<path style="stroke:none;" d="M 2.03125 -3.40625 L 4.546875 -3.40625 C 5.171875 -3.40625 5.671875 -3.59375 6.09375 -3.96875 C 6.578125 -4.40625 6.78125 -4.921875 6.78125 -5.671875 C 6.78125 -7.171875 5.890625 -8.015625 4.3125 -8.015625 L 1 -8.015625 L 1 0 L 2.03125 0 Z M 2.03125 -4.296875 L 2.03125 -7.109375 L 4.15625 -7.109375 C 5.140625 -7.109375 5.71875 -6.59375 5.71875 -5.703125 C 5.71875 -4.828125 5.140625 -4.296875 4.15625 -4.296875 Z M 2.03125 -4.296875 "/>
</symbol>
<symbol overflow="visible" id="glyph0-8">
<path style="stroke:none;" d="M 2.984375 -5.921875 C 1.359375 -5.921875 0.390625 -4.78125 0.390625 -2.84375 C 0.390625 -0.890625 1.359375 0.25 3 0.25 C 4.625 0.25 5.609375 -0.90625 5.609375 -2.796875 C 5.609375 -4.796875 4.65625 -5.921875 2.984375 -5.921875 Z M 3 -5.078125 C 4.03125 -5.078125 4.65625 -4.234375 4.65625 -2.8125 C 4.65625 -1.4375 4.015625 -0.59375 3 -0.59375 C 1.984375 -0.59375 1.359375 -1.4375 1.359375 -2.84375 C 1.359375 -4.234375 1.984375 -5.078125 3 -5.078125 Z M 3 -5.078125 "/>
</symbol>
<symbol overflow="visible" id="glyph0-9">
<path style="stroke:none;" d="M 0.59375 2.390625 L 1.515625 2.390625 L 1.515625 -0.609375 C 2 -0.015625 2.546875 0.25 3.28125 0.25 C 4.78125 0.25 5.75 -0.953125 5.75 -2.78125 C 5.75 -4.71875 4.8125 -5.921875 3.28125 -5.921875 C 2.5 -5.921875 1.875 -5.578125 1.4375 -4.890625 L 1.4375 -5.765625 L 0.59375 -5.765625 Z M 3.125 -5.078125 C 4.140625 -5.078125 4.796875 -4.1875 4.796875 -2.8125 C 4.796875 -1.5 4.125 -0.609375 3.125 -0.609375 C 2.140625 -0.609375 1.515625 -1.484375 1.515625 -2.84375 C 1.515625 -4.1875 2.140625 -5.078125 3.125 -5.078125 Z M 3.125 -5.078125 "/>
</symbol>
<symbol overflow="visible" id="glyph0-10">
<path style="stroke:none;" d="M 5.296875 0 L 5.296875 -5.765625 L 4.390625 -5.765625 L 4.390625 -2.5 C 4.390625 -1.3125 3.765625 -0.546875 2.8125 -0.546875 C 2.09375 -0.546875 1.625 -0.984375 1.625 -1.6875 L 1.625 -5.765625 L 0.71875 -5.765625 L 0.71875 -1.3125 C 0.71875 -0.359375 1.4375 0.25 2.546875 0.25 C 3.40625 0.25 3.9375 -0.046875 4.484375 -0.796875 L 4.484375 0 Z M 5.296875 0 "/>
</symbol>
<symbol overflow="visible" id="glyph0-11">
<path style="stroke:none;" d="M 1.671875 -8.015625 L 0.75 -8.015625 L 0.75 0 L 1.671875 0 Z M 1.671875 -8.015625 "/>
</symbol>
<symbol overflow="visible" id="glyph0-12">
<path style="stroke:none;" d="M 5.890625 -0.53125 C 5.78125 -0.515625 5.734375 -0.515625 5.6875 -0.515625 C 5.375 -0.515625 5.1875 -0.6875 5.1875 -0.96875 L 5.1875 -4.359375 C 5.1875 -5.375 4.4375 -5.921875 3.03125 -5.921875 C 2.171875 -5.921875 1.5 -5.6875 1.109375 -5.265625 C 0.84375 -4.96875 0.734375 -4.625 0.71875 -4.0625 L 1.640625 -4.0625 C 1.71875 -4.765625 2.140625 -5.078125 2.984375 -5.078125 C 3.828125 -5.078125 4.28125 -4.78125 4.28125 -4.21875 L 4.28125 -3.984375 C 4.265625 -3.59375 4.0625 -3.4375 3.328125 -3.34375 C 2.03125 -3.171875 1.828125 -3.140625 1.46875 -2.984375 C 0.796875 -2.703125 0.46875 -2.203125 0.46875 -1.453125 C 0.46875 -0.40625 1.1875 0.25 2.359375 0.25 C 3.078125 0.25 3.65625 0 4.3125 -0.59375 C 4.375 0 4.65625 0.25 5.265625 0.25 C 5.453125 0.25 5.578125 0.234375 5.890625 0.15625 Z M 4.28125 -1.8125 C 4.28125 -1.5 4.1875 -1.3125 3.921875 -1.0625 C 3.546875 -0.71875 3.09375 -0.546875 2.546875 -0.546875 C 1.84375 -0.546875 1.421875 -0.890625 1.421875 -1.46875 C 1.421875 -2.078125 1.8125 -2.390625 2.8125 -2.53125 C 3.78125 -2.65625 3.96875 -2.703125 4.28125 -2.84375 Z M 4.28125 -1.8125 "/>
</symbol>
<symbol overflow="visible" id="glyph0-13">
<path style="stroke:none;" d="M 2.796875 -5.765625 L 1.84375 -5.765625 L 1.84375 -7.34375 L 0.9375 -7.34375 L 0.9375 -5.765625 L 0.15625 -5.765625 L 0.15625 -5.015625 L 0.9375 -5.015625 L 0.9375 -0.65625 C 0.9375 -0.0625 1.328125 0.25 2.046875 0.25 C 2.28125 0.25 2.484375 0.234375 2.796875 0.171875 L 2.796875 -0.59375 C 2.65625 -0.5625 2.546875 -0.546875 2.359375 -0.546875 C 1.953125 -0.546875 1.84375 -0.65625 1.84375 -1.0625 L 1.84375 -5.015625 L 2.796875 -5.015625 Z M 2.796875 -5.765625 "/>
</symbol>
<symbol overflow="visible" id="glyph0-14">
<path style="stroke:none;" d="M 1.65625 -5.765625 L 0.734375 -5.765625 L 0.734375 0 L 1.65625 0 Z M 1.65625 -8.015625 L 0.71875 -8.015625 L 0.71875 -6.859375 L 1.65625 -6.859375 Z M 1.65625 -8.015625 "/>
</symbol>
<symbol overflow="visible" id="glyph0-15">
<path style="stroke:none;" d="M 0.765625 -5.765625 L 0.765625 0 L 1.6875 0 L 1.6875 -3.171875 C 1.6875 -4.359375 2.3125 -5.125 3.25 -5.125 C 3.984375 -5.125 4.4375 -4.6875 4.4375 -4 L 4.4375 0 L 5.359375 0 L 5.359375 -4.359375 C 5.359375 -5.3125 4.640625 -5.921875 3.53125 -5.921875 C 2.671875 -5.921875 2.125 -5.59375 1.609375 -4.796875 L 1.609375 -5.765625 Z M 0.765625 -5.765625 "/>
</symbol>
<symbol overflow="visible" id="glyph0-16">
<path style="stroke:none;" d="M 6.5625 -5.671875 C 6.5625 -6.21875 6.515625 -6.375 6.34375 -6.75 C 5.90625 -7.671875 4.96875 -8.15625 3.625 -8.15625 C 1.859375 -8.15625 0.765625 -7.25 0.765625 -5.796875 C 0.765625 -4.8125 1.28125 -4.203125 2.34375 -3.921875 L 4.328125 -3.40625 C 5.359375 -3.140625 5.8125 -2.734375 5.8125 -2.09375 C 5.8125 -1.671875 5.578125 -1.234375 5.234375 -0.984375 C 4.921875 -0.765625 4.40625 -0.65625 3.765625 -0.65625 C 2.875 -0.65625 2.296875 -0.859375 1.90625 -1.3125 C 1.609375 -1.671875 1.484375 -2.0625 1.5 -2.546875 L 0.53125 -2.546875 C 0.53125 -1.8125 0.6875 -1.328125 1 -0.890625 C 1.546875 -0.125 2.46875 0.25 3.703125 0.25 C 4.65625 0.25 5.4375 0.03125 5.953125 -0.359375 C 6.484375 -0.796875 6.828125 -1.5 6.828125 -2.203125 C 6.828125 -3.1875 6.21875 -3.921875 5.125 -4.21875 L 3.109375 -4.75 C 2.140625 -5.015625 1.796875 -5.328125 1.796875 -5.9375 C 1.796875 -6.75 2.515625 -7.296875 3.59375 -7.296875 C 4.859375 -7.296875 5.578125 -6.71875 5.59375 -5.671875 Z M 6.5625 -5.671875 "/>
</symbol>
<symbol overflow="visible" id="glyph0-17">
<path style="stroke:none;" d="M 5.640625 -2.578125 C 5.640625 -3.453125 5.578125 -3.984375 5.40625 -4.40625 C 5.03125 -5.359375 4.15625 -5.921875 3.078125 -5.921875 C 1.46875 -5.921875 0.4375 -4.703125 0.4375 -2.8125 C 0.4375 -0.90625 1.4375 0.25 3.0625 0.25 C 4.375 0.25 5.296875 -0.5 5.515625 -1.75 L 4.59375 -1.75 C 4.34375 -0.984375 3.828125 -0.59375 3.09375 -0.59375 C 2.515625 -0.59375 2.015625 -0.859375 1.703125 -1.34375 C 1.484375 -1.671875 1.40625 -2 1.390625 -2.578125 Z M 1.421875 -3.328125 C 1.5 -4.390625 2.140625 -5.078125 3.0625 -5.078125 C 4 -5.078125 4.65625 -4.359375 4.65625 -3.328125 Z M 1.421875 -3.328125 "/>
</symbol>
<symbol overflow="visible" id="glyph0-18">
<path style="stroke:none;" d="M 3.21875 -2.984375 L 5.140625 -5.765625 L 4.109375 -5.765625 L 2.734375 -3.671875 L 1.34375 -5.765625 L 0.296875 -5.765625 L 2.21875 -2.9375 L 0.1875 0 L 1.234375 0 L 2.6875 -2.21875 L 4.140625 0 L 5.203125 0 Z M 3.21875 -2.984375 "/>
</symbol>
<symbol overflow="visible" id="glyph0-19">
<path style="stroke:none;" d="M 2.015625 -3.65625 L 5.84375 -3.65625 L 5.84375 -4.546875 L 2.015625 -4.546875 L 2.015625 -7.109375 L 6.375 -7.109375 L 6.375 -8.015625 L 0.984375 -8.015625 L 0.984375 0 L 2.015625 0 Z M 2.015625 -3.65625 "/>
</symbol>
<symbol overflow="visible" id="glyph0-20">
<path style="stroke:none;" d="M 0.765625 -5.765625 L 0.765625 0 L 1.6875 0 L 1.6875 -3.625 C 1.6875 -4.453125 2.296875 -5.125 3.046875 -5.125 C 3.734375 -5.125 4.109375 -4.703125 4.109375 -3.96875 L 4.109375 0 L 5.03125 0 L 5.03125 -3.625 C 5.03125 -4.453125 5.640625 -5.125 6.390625 -5.125 C 7.0625 -5.125 7.453125 -4.703125 7.453125 -3.96875 L 7.453125 0 L 8.375 0 L 8.375 -4.328125 C 8.375 -5.359375 7.78125 -5.921875 6.703125 -5.921875 C 5.9375 -5.921875 5.484375 -5.703125 4.9375 -5.046875 C 4.59375 -5.671875 4.140625 -5.921875 3.390625 -5.921875 C 2.625 -5.921875 2.09375 -5.640625 1.609375 -4.953125 L 1.609375 -5.765625 Z M 0.765625 -5.765625 "/>
</symbol>
<symbol overflow="visible" id="glyph0-21">
<path style="stroke:none;" d="M 5.140625 0 L 7.40625 -6.71875 L 7.40625 0 L 8.375 0 L 8.375 -8.015625 L 6.953125 -8.015625 L 4.625 -1.03125 L 2.25 -8.015625 L 0.828125 -8.015625 L 0.828125 0 L 1.796875 0 L 1.796875 -6.71875 L 4.0625 0 Z M 5.140625 0 "/>
</symbol>
<symbol overflow="visible" id="glyph1-0">
<path style="stroke:none;" d=""/>
</symbol>
<symbol overflow="visible" id="glyph1-1">
<path style="stroke:none;" d="M -2.40625 -5.21875 L 0 -6.03125 L 0 -7.1875 L -8.015625 -4.359375 L -8.015625 -3.046875 L 0 -0.1875 L 0 -1.28125 L -2.40625 -2.125 Z M -3.265625 -4.921875 L -3.265625 -2.375 L -6.921875 -3.703125 Z M -3.265625 -4.921875 "/>
</symbol>
<symbol overflow="visible" id="glyph1-2">
<path style="stroke:none;" d="M -5.765625 -4.4375 L -4.921875 -4.4375 C -5.625 -3.984375 -5.921875 -3.46875 -5.921875 -2.75 C -5.921875 -1.359375 -4.625 -0.390625 -2.78125 -0.390625 C -1.8125 -0.390625 -1.109375 -0.609375 -0.53125 -1.109375 C -0.015625 -1.546875 0.25 -2.09375 0.25 -2.6875 C 0.25 -3.375 -0.0625 -3.875 -0.78125 -4.359375 L -0.484375 -4.359375 C 1.0625 -4.359375 1.625 -3.921875 1.625 -2.78125 C 1.625 -2 1.3125 -1.59375 0.65625 -1.5 L 0.65625 -0.578125 C 1.734375 -0.65625 2.390625 -1.5 2.390625 -2.765625 C 2.390625 -3.609375 2.125 -4.3125 1.65625 -4.6875 C 1.125 -5.125 0.40625 -5.296875 -0.953125 -5.296875 L -5.765625 -5.296875 Z M -5.078125 -2.84375 C -5.078125 -3.8125 -4.265625 -4.359375 -2.8125 -4.359375 C -1.40625 -4.359375 -0.59375 -3.796875 -0.59375 -2.84375 C -0.59375 -1.890625 -1.421875 -1.34375 -2.84375 -1.34375 C -4.25 -1.34375 -5.078125 -1.890625 -5.078125 -2.84375 Z M -5.078125 -2.84375 "/>
</symbol>
<symbol overflow="visible" id="glyph1-3">
<path style="stroke:none;" d="M -2.578125 -5.640625 C -3.453125 -5.640625 -3.984375 -5.578125 -4.40625 -5.40625 C -5.359375 -5.03125 -5.921875 -4.15625 -5.921875 -3.078125 C -5.921875 -1.46875 -4.703125 -0.4375 -2.8125 -0.4375 C -0.90625 -0.4375 0.25 -1.4375 0.25 -3.0625 C 0.25 -4.375 -0.5 -5.296875 -1.75 -5.515625 L -1.75 -4.59375 C -0.984375 -4.34375 -0.59375 -3.828125 -0.59375 -3.09375 C -0.59375 -2.515625 -0.859375 -2.015625 -1.34375 -1.703125 C -1.671875 -1.484375 -2 -1.40625 -2.578125 -1.390625 Z M -3.328125 -1.421875 C -4.390625 -1.5 -5.078125 -2.140625 -5.078125 -3.0625 C -5.078125 -4 -4.359375 -4.65625 -3.328125 -4.65625 Z M -3.328125 -1.421875 "/>
</symbol>
</g>
</defs>
<g id="surface183">
<rect x="0" y="0" width="432" height="259" style="fill:rgb(100%,100%,100%);fill-opacity:1;stroke:none;"/>
<path style="fill:none;stroke-width:0.711319;stroke-linecap:round;stroke-linejoin:round;stroke:rgb(100%,100%,100%);stroke-opacity:1;stroke-miterlimit:10;" d="M 0 259 L 432 259 L 432 0 L 0 0 Z M 0 259 "/>
<path style="fill-rule:nonzero;fill:rgb(100%,100%,100%);fill-opacity:1;stroke-width:0.711319;stroke-linecap:round;stroke-linejoin:round;stroke:rgb(100%,100%,100%);stroke-opacity:1;stroke-miterlimit:10;" d="M 48.65625 209.757812 L 336.535156 209.757812 L 336.535156 21.917969 L 48.65625 21.917969 Z M 48.65625 209.757812 "/>
<path style="fill:none;stroke-width:2.845276;stroke-linecap:square;stroke-linejoin:round;stroke:rgb(96.470588%,97.254902%,98.039216%);stroke-opacity:1;stroke-miterlimit:10;" d="M 48.65625 192.679688 L 336.535156 192.679688 "/>
<path style="fill:none;stroke-width:2.845276;stroke-linecap:square;stroke-linejoin:round;stroke:rgb(96.470588%,97.254902%,98.039216%);stroke-opacity:1;stroke-miterlimit:10;" d="M 48.65625 158.527344 L 336.535156 158.527344 "/>
<path style="fill:none;stroke-width:2.845276;stroke-linecap:square;stroke-linejoin:round;stroke:rgb(96.470588%,97.254902%,98.039216%);stroke-opacity:1;stroke-miterlimit:10;" d="M 48.65625 124.375 L 336.535156 124.375 "/>
<path style="fill:none;stroke-width:2.845276;stroke-linecap:square;stroke-linejoin:round;stroke:rgb(96.470588%,97.254902%,98.039216%);stroke-opacity:1;stroke-miterlimit:10;" d="M 48.65625 90.222656 L 336.535156 90.222656 "/>
<path style="fill:none;stroke-width:2.845276;stroke-linecap:square;stroke-linejoin:round;stroke:rgb(96.470588%,97.254902%,98.039216%);stroke-opacity:1;stroke-miterlimit:10;" d="M 48.65625 56.070312 L 336.535156 56.070312 "/>
<path style="fill:none;stroke-width:2.845276;stroke-linecap:square;stroke-linejoin:round;stroke:rgb(96.470588%,97.254902%,98.039216%);stroke-opacity:1;stroke-miterlimit:10;" d="M 48.65625 21.917969 L 336.535156 21.917969 "/>
<path style="fill-rule:nonzero;fill:rgb(100%,43.921569%,26.27451%);fill-opacity:0.901961;stroke-width:1.066978;stroke-linecap:butt;stroke-linejoin:miter;stroke:rgb(100%,43.921569%,26.27451%);stroke-opacity:1;stroke-miterlimit:10;" d="M 190.550781 201.21875 L 231.441406 201.21875 L 231.441406 184.140625 L 190.550781 184.140625 Z M 190.550781 201.21875 "/>
<path style="fill-rule:nonzero;fill:rgb(100%,43.921569%,26.27451%);fill-opacity:0.901961;stroke-width:1.066978;stroke-linecap:butt;stroke-linejoin:miter;stroke:rgb(100%,43.921569%,26.27451%);stroke-opacity:1;stroke-miterlimit:10;" d="M 190.550781 184.144531 L 241.664062 184.144531 L 241.664062 167.066406 L 190.550781 167.066406 Z M 190.550781 184.144531 "/>
<path style="fill-rule:nonzero;fill:rgb(100%,43.921569%,26.27451%);fill-opacity:0.901961;stroke-width:1.066978;stroke-linecap:butt;stroke-linejoin:miter;stroke:rgb(100%,43.921569%,26.27451%);stroke-opacity:1;stroke-miterlimit:10;" d="M 190.550781 167.066406 L 251.886719 167.066406 L 251.886719 149.988281 L 190.550781 149.988281 Z M 190.550781 167.066406 "/>
<path style="fill-rule:nonzero;fill:rgb(100%,43.921569%,26.27451%);fill-opacity:0.901961;stroke-width:1.066978;stroke-linecap:butt;stroke-linejoin:miter;stroke:rgb(100%,43.921569%,26.27451%);stroke-opacity:1;stroke-miterlimit:10;" d="M 190.550781 149.992188 L 262.113281 149.992188 L 262.113281 132.914062 L 190.550781 132.914062 Z M 190.550781 149.992188 "/>
<path style="fill-rule:nonzero;fill:rgb(100%,43.921569%,26.27451%);fill-opacity:0.901961;stroke-width:1.066978;stroke-linecap:butt;stroke-linejoin:miter;stroke:rgb(100%,43.921569%,26.27451%);stroke-opacity:1;stroke-miterlimit:10;" d="M 190.550781 132.914062 L 280.511719 132.914062 L 280.511719 115.835938 L 190.550781 115.835938 Z M 190.550781 132.914062 "/>
<path style="fill-rule:nonzero;fill:rgb(100%,43.921569%,26.27451%);fill-opacity:0.901961;stroke-width:1.066978;stroke-linecap:butt;stroke-linejoin:miter;stroke:rgb(100%,43.921569%,26.27451%);stroke-opacity:1;stroke-miterlimit:10;" d="M 190.550781 115.839844 L 282.558594 115.839844 L 282.558594 98.761719 L 190.550781 98.761719 Z M 190.550781 115.839844 "/>
<path style="fill-rule:nonzero;fill:rgb(100%,43.921569%,26.27451%);fill-opacity:0.901961;stroke-width:1.066978;stroke-linecap:butt;stroke-linejoin:miter;stroke:rgb(100%,43.921569%,26.27451%);stroke-opacity:1;stroke-miterlimit:10;" d="M 190.550781 98.761719 L 292.78125 98.761719 L 292.78125 81.683594 L 190.550781 81.683594 Z M 190.550781 98.761719 "/>
<path style="fill-rule:nonzero;fill:rgb(100%,43.921569%,26.27451%);fill-opacity:0.901961;stroke-width:1.066978;stroke-linecap:butt;stroke-linejoin:miter;stroke:rgb(100%,43.921569%,26.27451%);stroke-opacity:1;stroke-miterlimit:10;" d="M 190.550781 81.683594 L 303.003906 81.683594 L 303.003906 64.605469 L 190.550781 64.605469 Z M 190.550781 81.683594 "/>
<path style="fill-rule:nonzero;fill:rgb(100%,43.921569%,26.27451%);fill-opacity:0.901961;stroke-width:1.066978;stroke-linecap:butt;stroke-linejoin:miter;stroke:rgb(100%,43.921569%,26.27451%);stroke-opacity:1;stroke-miterlimit:10;" d="M 190.550781 64.609375 L 313.226562 64.609375 L 313.226562 47.53125 L 190.550781 47.53125 Z M 190.550781 64.609375 "/>
<path style="fill-rule:nonzero;fill:rgb(100%,43.921569%,26.27451%);fill-opacity:0.901961;stroke-width:1.066978;stroke-linecap:butt;stroke-linejoin:miter;stroke:rgb(100%,43.921569%,26.27451%);stroke-opacity:1;stroke-miterlimit:10;" d="M 190.550781 47.53125 L 323.449219 47.53125 L 323.449219 30.453125 L 190.550781 30.453125 Z M 190.550781 47.53125 "/>
<path style="fill-rule:nonzero;fill:rgb(0%,58.431373%,65.882353%);fill-opacity:0.901961;stroke-width:1.066978;stroke-linecap:butt;stroke-linejoin:miter;stroke:rgb(0%,58.431373%,65.882353%);stroke-opacity:1;stroke-miterlimit:10;" d="M 151.703125 201.21875 L 190.550781 201.21875 L 190.550781 184.140625 L 151.703125 184.140625 Z M 151.703125 201.21875 "/>
<path style="fill-rule:nonzero;fill:rgb(0%,58.431373%,65.882353%);fill-opacity:0.901961;stroke-width:1.066978;stroke-linecap:butt;stroke-linejoin:miter;stroke:rgb(0%,58.431373%,65.882353%);stroke-opacity:1;stroke-miterlimit:10;" d="M 141.480469 184.144531 L 190.550781 184.144531 L 190.550781 167.066406 L 141.480469 167.066406 Z M 141.480469 184.144531 "/>
<path style="fill-rule:nonzero;fill:rgb(0%,58.431373%,65.882353%);fill-opacity:0.901961;stroke-width:1.066978;stroke-linecap:butt;stroke-linejoin:miter;stroke:rgb(0%,58.431373%,65.882353%);stroke-opacity:1;stroke-miterlimit:10;" d="M 131.257812 167.066406 L 190.550781 167.066406 L 190.550781 149.988281 L 131.257812 149.988281 Z M 131.257812 167.066406 "/>
<path style="fill-rule:nonzero;fill:rgb(0%,58.431373%,65.882353%);fill-opacity:0.901961;stroke-width:1.066978;stroke-linecap:butt;stroke-linejoin:miter;stroke:rgb(0%,58.431373%,65.882353%);stroke-opacity:1;stroke-miterlimit:10;" d="M 123.082031 149.992188 L 190.554688 149.992188 L 190.554688 132.914062 L 123.082031 132.914062 Z M 123.082031 149.992188 "/>
<path style="fill-rule:nonzero;fill:rgb(0%,58.431373%,65.882353%);fill-opacity:0.901961;stroke-width:1.066978;stroke-linecap:butt;stroke-linejoin:miter;stroke:rgb(0%,58.431373%,65.882353%);stroke-opacity:1;stroke-miterlimit:10;" d="M 104.679688 132.914062 L 190.550781 132.914062 L 190.550781 115.835938 L 104.679688 115.835938 Z M 104.679688 132.914062 "/>
<path style="fill-rule:nonzero;fill:rgb(0%,58.431373%,65.882353%);fill-opacity:0.901961;stroke-width:1.066978;stroke-linecap:butt;stroke-linejoin:miter;stroke:rgb(0%,58.431373%,65.882353%);stroke-opacity:1;stroke-miterlimit:10;" d="M 102.636719 115.839844 L 190.554688 115.839844 L 190.554688 98.761719 L 102.636719 98.761719 Z M 102.636719 115.839844 "/>
<path style="fill-rule:nonzero;fill:rgb(0%,58.431373%,65.882353%);fill-opacity:0.901961;stroke-width:1.066978;stroke-linecap:butt;stroke-linejoin:miter;stroke:rgb(0%,58.431373%,65.882353%);stroke-opacity:1;stroke-miterlimit:10;" d="M 92.410156 98.761719 L 190.550781 98.761719 L 190.550781 81.683594 L 92.410156 81.683594 Z M 92.410156 98.761719 "/>
<path style="fill-rule:nonzero;fill:rgb(0%,58.431373%,65.882353%);fill-opacity:0.901961;stroke-width:1.066978;stroke-linecap:butt;stroke-linejoin:miter;stroke:rgb(0%,58.431373%,65.882353%);stroke-opacity:1;stroke-miterlimit:10;" d="M 82.1875 81.683594 L 190.550781 81.683594 L 190.550781 64.605469 L 82.1875 64.605469 Z M 82.1875 81.683594 "/>
<path style="fill-rule:nonzero;fill:rgb(0%,58.431373%,65.882353%);fill-opacity:0.901961;stroke-width:1.066978;stroke-linecap:butt;stroke-linejoin:miter;stroke:rgb(0%,58.431373%,65.882353%);stroke-opacity:1;stroke-miterlimit:10;" d="M 71.964844 64.609375 L 190.550781 64.609375 L 190.550781 47.53125 L 71.964844 47.53125 Z M 71.964844 64.609375 "/>
<path style="fill-rule:nonzero;fill:rgb(0%,58.431373%,65.882353%);fill-opacity:0.901961;stroke-width:1.066978;stroke-linecap:butt;stroke-linejoin:miter;stroke:rgb(0%,58.431373%,65.882353%);stroke-opacity:1;stroke-miterlimit:10;" d="M 61.742188 47.53125 L 190.550781 47.53125 L 190.550781 30.453125 L 61.742188 30.453125 Z M 61.742188 47.53125 "/>
<path style="fill:none;stroke-width:0.646654;stroke-linecap:butt;stroke-linejoin:round;stroke:rgb(7.058824%,10.588235%,14.117647%);stroke-opacity:1;stroke-miterlimit:10;" d="M 190.550781 209.757812 L 190.550781 21.917969 "/>
<g style="fill:rgb(7.058824%,10.588235%,14.117647%);fill-opacity:1;">
  <use xlink:href="#glyph0-1" x="37.179688" y="196.198242"/>
</g>
<g style="fill:rgb(7.058824%,10.588235%,14.117647%);fill-opacity:1;">
  <use xlink:href="#glyph0-2" x="37.179688" y="162.045898"/>
</g>
<g style="fill:rgb(7.058824%,10.588235%,14.117647%);fill-opacity:1;">
  <use xlink:href="#glyph0-3" x="37.179688" y="127.893555"/>
</g>
<g style="fill:rgb(7.058824%,10.588235%,14.117647%);fill-opacity:1;">
  <use xlink:href="#glyph0-4" x="37.179688" y="93.741211"/>
</g>
<g style="fill:rgb(7.058824%,10.588235%,14.117647%);fill-opacity:1;">
  <use xlink:href="#glyph0-5" x="37.179688" y="59.588867"/>
</g>
<g style="fill:rgb(7.058824%,10.588235%,14.117647%);fill-opacity:1;">
  <use xlink:href="#glyph0-6" x="31.179688" y="25.436523"/>
  <use xlink:href="#glyph0-1" x="37.179688" y="25.436523"/>
</g>
<path style="fill:none;stroke-width:0.711319;stroke-linecap:square;stroke-linejoin:round;stroke:rgb(7.058824%,10.588235%,14.117647%);stroke-opacity:1;stroke-miterlimit:10;" d="M 48.65625 209.757812 L 336.535156 209.757812 "/>
<path style="fill:none;stroke-width:0.711319;stroke-linecap:square;stroke-linejoin:round;stroke:rgb(7.058824%,10.588235%,14.117647%);stroke-opacity:1;stroke-miterlimit:10;" d="M 67.875 213.410156 L 67.875 209.757812 "/>
<path style="fill:none;stroke-width:0.711319;stroke-linecap:square;stroke-linejoin:round;stroke:rgb(7.058824%,10.588235%,14.117647%);stroke-opacity:1;stroke-miterlimit:10;" d="M 108.769531 213.410156 L 108.769531 209.757812 "/>
<path style="fill:none;stroke-width:0.711319;stroke-linecap:square;stroke-linejoin:round;stroke:rgb(7.058824%,10.588235%,14.117647%);stroke-opacity:1;stroke-miterlimit:10;" d="M 149.660156 213.410156 L 149.660156 209.757812 "/>
<path style="fill:none;stroke-width:0.711319;stroke-linecap:square;stroke-linejoin:round;stroke:rgb(7.058824%,10.588235%,14.117647%);stroke-opacity:1;stroke-miterlimit:10;" d="M 190.550781 213.410156 L 190.550781 209.757812 "/>
<path style="fill:none;stroke-width:0.711319;stroke-linecap:square;stroke-linejoin:round;stroke:rgb(7.058824%,10.588235%,14.117647%);stroke-opacity:1;stroke-miterlimit:10;" d="M 231.445312 213.410156 L 231.445312 209.757812 "/>
<path style="fill:none;stroke-width:0.711319;stroke-linecap:square;stroke-linejoin:round;stroke:rgb(7.058824%,10.588235%,14.117647%);stroke-opacity:1;stroke-miterlimit:10;" d="M 272.335938 213.410156 L 272.335938 209.757812 "/>
<path style="fill:none;stroke-width:0.711319;stroke-linecap:square;stroke-linejoin:round;stroke:rgb(7.058824%,10.588235%,14.117647%);stroke-opacity:1;stroke-miterlimit:10;" d="M 313.226562 213.410156 L 313.226562 209.757812 "/>
<g style="fill:rgb(7.058824%,10.588235%,14.117647%);fill-opacity:1;">
  <use xlink:href="#glyph0-4" x="58.875" y="224.717773"/>
  <use xlink:href="#glyph0-1" x="64.875" y="224.717773"/>
  <use xlink:href="#glyph0-1" x="70.875" y="224.717773"/>
</g>
<g style="fill:rgb(7.058824%,10.588235%,14.117647%);fill-opacity:1;">
  <use xlink:href="#glyph0-3" x="99.769531" y="224.717773"/>
  <use xlink:href="#glyph0-1" x="105.769531" y="224.717773"/>
  <use xlink:href="#glyph0-1" x="111.769531" y="224.717773"/>
</g>
<g style="fill:rgb(7.058824%,10.588235%,14.117647%);fill-opacity:1;">
  <use xlink:href="#glyph0-2" x="140.660156" y="224.717773"/>
  <use xlink:href="#glyph0-1" x="146.660156" y="224.717773"/>
  <use xlink:href="#glyph0-1" x="152.660156" y="224.717773"/>
</g>
<g style="fill:rgb(7.058824%,10.588235%,14.117647%);fill-opacity:1;">
  <use xlink:href="#glyph0-1" x="187.550781" y="224.717773"/>
</g>
<g style="fill:rgb(7.058824%,10.588235%,14.117647%);fill-opacity:1;">
  <use xlink:href="#glyph0-2" x="222.445312" y="224.717773"/>
  <use xlink:href="#glyph0-1" x="228.445312" y="224.717773"/>
  <use xlink:href="#glyph0-1" x="234.445312" y="224.717773"/>
</g>
<g style="fill:rgb(7.058824%,10.588235%,14.117647%);fill-opacity:1;">
  <use xlink:href="#glyph0-3" x="263.335938" y="224.717773"/>
  <use xlink:href="#glyph0-1" x="269.335938" y="224.717773"/>
  <use xlink:href="#glyph0-1" x="275.335938" y="224.717773"/>
</g>
<g style="fill:rgb(7.058824%,10.588235%,14.117647%);fill-opacity:1;">
  <use xlink:href="#glyph0-4" x="304.226562" y="224.717773"/>
  <use xlink:href="#glyph0-1" x="310.226562" y="224.717773"/>
  <use xlink:href="#glyph0-1" x="316.226562" y="224.717773"/>
</g>
<g style="fill:rgb(7.058824%,10.588235%,14.117647%);fill-opacity:1;">
  <use xlink:href="#glyph0-7" x="167.597656" y="245.561523"/>
  <use xlink:href="#glyph0-8" x="174.597656" y="245.561523"/>
  <use xlink:href="#glyph0-9" x="180.597656" y="245.561523"/>
  <use xlink:href="#glyph0-10" x="186.597656" y="245.561523"/>
  <use xlink:href="#glyph0-11" x="192.597656" y="245.561523"/>
  <use xlink:href="#glyph0-12" x="194.597656" y="245.561523"/>
  <use xlink:href="#glyph0-13" x="200.597656" y="245.561523"/>
  <use xlink:href="#glyph0-14" x="203.597656" y="245.561523"/>
  <use xlink:href="#glyph0-8" x="205.597656" y="245.561523"/>
  <use xlink:href="#glyph0-15" x="211.597656" y="245.561523"/>
</g>
<g style="fill:rgb(7.058824%,10.588235%,14.117647%);fill-opacity:1;">
  <use xlink:href="#glyph1-1" x="17.737305" y="125.339844"/>
  <use xlink:href="#glyph1-2" x="17.737305" y="118.339844"/>
  <use xlink:href="#glyph1-3" x="17.737305" y="112.339844"/>
</g>
<path style=" stroke:none;fill-rule:nonzero;fill:rgb(100%,100%,100%);fill-opacity:1;" d="M 342.207031 89.589844 L 410.082031 89.589844 L 410.082031 21.917969 L 342.207031 21.917969 Z M 342.207031 89.589844 "/>
<g style="fill:rgb(7.058824%,10.588235%,14.117647%);fill-opacity:1;">
  <use xlink:href="#glyph0-16" x="350.425781" y="31.436523"/>
  <use xlink:href="#glyph0-17" x="357.425781" y="31.436523"/>
  <use xlink:href="#glyph0-18" x="363.425781" y="31.436523"/>
</g>
<path style="fill-rule:nonzero;fill:rgb(100%,100%,100%);fill-opacity:1;stroke-width:0.711319;stroke-linecap:round;stroke-linejoin:round;stroke:rgb(100%,100%,100%);stroke-opacity:1;stroke-miterlimit:10;" d="M 350.425781 58.574219 L 369.605469 58.574219 L 369.605469 39.394531 L 350.425781 39.394531 Z M 350.425781 58.574219 "/>
<path style="fill-rule:nonzero;fill:rgb(0%,58.431373%,65.882353%);fill-opacity:0.901961;stroke-width:1.066978;stroke-linecap:butt;stroke-linejoin:miter;stroke:rgb(0%,58.431373%,65.882353%);stroke-opacity:1;stroke-miterlimit:10;" d="M 351.132812 57.867188 L 368.894531 57.867188 L 368.894531 40.105469 L 351.132812 40.105469 Z M 351.132812 57.867188 "/>
<path style="fill-rule:nonzero;fill:rgb(100%,100%,100%);fill-opacity:1;stroke-width:0.711319;stroke-linecap:round;stroke-linejoin:round;stroke:rgb(100%,100%,100%);stroke-opacity:1;stroke-miterlimit:10;" d="M 350.425781 81.371094 L 369.605469 81.371094 L 369.605469 62.191406 L 350.425781 62.191406 Z M 350.425781 81.371094 "/>
<path style="fill-rule:nonzero;fill:rgb(100%,43.921569%,26.27451%);fill-opacity:0.901961;stroke-width:1.066978;stroke-linecap:butt;stroke-linejoin:miter;stroke:rgb(100%,43.921569%,26.27451%);stroke-opacity:1;stroke-miterlimit:10;" d="M 351.132812 80.660156 L 368.894531 80.660156 L 368.894531 62.898438 L 351.132812 62.898438 Z M 351.132812 80.660156 "/>
<g style="fill:rgb(7.058824%,10.588235%,14.117647%);fill-opacity:1;">
  <use xlink:href="#glyph0-19" x="375.082031" y="52.50293"/>
  <use xlink:href="#glyph0-17" x="381.082031" y="52.50293"/>
  <use xlink:href="#glyph0-20" x="387.082031" y="52.50293"/>
  <use xlink:href="#glyph0-12" x="396.082031" y="52.50293"/>
  <use xlink:href="#glyph0-11" x="402.082031" y="52.50293"/>
  <use xlink:href="#glyph0-17" x="404.082031" y="52.50293"/>
</g>
<g style="fill:rgb(7.058824%,10.588235%,14.117647%);fill-opacity:1;">
  <use xlink:href="#glyph0-21" x="375.082031" y="75.299805"/>
  <use xlink:href="#glyph0-12" x="384.082031" y="75.299805"/>
  <use xlink:href="#glyph0-11" x="390.082031" y="75.299805"/>
  <use xlink:href="#glyph0-17" x="392.082031" y="75.299805"/>
</g>
</g>
</svg>
