<?xml version="1.0" encoding="UTF-8"?>
<svg xmlns="http://www.w3.org/2000/svg" xmlns:xlink="http://www.w3.org/1999/xlink" width="525pt" height="324pt" viewBox="0 0 525 324" version="1.1">
<defs>
<g>
<symbol overflow="visible" id="glyph0-0">
<path style="stroke:none;" d=""/>
</symbol>
<symbol overflow="visible" id="glyph0-1">
<path style="stroke:none;" d="M 2.84375 -5.671875 L 2.84375 0 L 3.8125 0 L 3.8125 -7.953125 L 3.171875 -7.953125 C 2.84375 -6.734375 2.625 -6.5625 1.125 -6.375 L 1.125 -5.671875 Z M 2.84375 -5.671875 "/>
</symbol>
<symbol overflow="visible" id="glyph0-2">
<path style="stroke:none;" d="M 2.09375 -1.140625 L 0.953125 -1.140625 L 0.953125 0 L 2.09375 0 Z M 2.09375 -1.140625 "/>
</symbol>
<symbol overflow="visible" id="glyph0-3">
<path style="stroke:none;" d="M 5.234375 -7.796875 L 1.203125 -7.796875 L 0.625 -3.546875 L 1.515625 -3.546875 C 1.96875 -4.09375 2.34375 -4.28125 2.953125 -4.28125 C 4 -4.28125 4.65625 -3.5625 4.65625 -2.40625 C 4.65625 -1.28125 4 -0.609375 2.953125 -0.609375 C 2.09375 -0.609375 1.578125 -1.03125 1.359375 -1.90625 L 0.390625 -1.90625 C 0.515625 -1.28125 0.625 -0.96875 0.859375 -0.6875 C 1.296875 -0.09375 2.09375 0.25 2.96875 0.25 C 4.546875 0.25 5.640625 -0.890625 5.640625 -2.546875 C 5.640625 -4.078125 4.625 -5.140625 3.125 -5.140625 C 2.578125 -5.140625 2.140625 -5 1.6875 -4.65625 L 1.984375 -6.84375 L 5.234375 -6.84375 Z M 5.234375 -7.796875 "/>
</symbol>
<symbol overflow="visible" id="glyph0-4">
<path style="stroke:none;" d="M 5.5625 -0.953125 L 1.46875 -0.953125 C 1.5625 -1.609375 1.90625 -2.03125 2.875 -2.625 L 3.96875 -3.234375 C 5.0625 -3.84375 5.625 -4.65625 5.625 -5.625 C 5.625 -6.296875 5.359375 -6.90625 4.890625 -7.34375 C 4.4375 -7.75 3.859375 -7.953125 3.125 -7.953125 C 2.140625 -7.953125 1.390625 -7.59375 0.96875 -6.921875 C 0.6875 -6.5 0.578125 -6 0.546875 -5.203125 L 1.515625 -5.203125 C 1.546875 -5.734375 1.609375 -6.0625 1.75 -6.328125 C 2 -6.8125 2.515625 -7.109375 3.09375 -7.109375 C 3.96875 -7.109375 4.625 -6.46875 4.625 -5.609375 C 4.625 -4.96875 4.265625 -4.421875 3.578125 -4.03125 L 2.5625 -3.4375 C 0.9375 -2.5 0.46875 -1.75 0.375 -0.015625 L 5.5625 -0.015625 Z M 5.5625 -0.953125 "/>
</symbol>
<symbol overflow="visible" id="glyph0-5">
<path style="stroke:none;" d="M 2.4375 -3.65625 L 2.953125 -3.65625 C 4.015625 -3.65625 4.578125 -3.171875 4.578125 -2.21875 C 4.578125 -1.203125 3.96875 -0.609375 2.96875 -0.609375 C 1.90625 -0.609375 1.390625 -1.140625 1.3125 -2.3125 L 0.359375 -2.3125 C 0.390625 -1.671875 0.5 -1.25 0.6875 -0.90625 C 1.09375 -0.125 1.859375 0.25 2.921875 0.25 C 4.53125 0.25 5.5625 -0.71875 5.5625 -2.21875 C 5.5625 -3.234375 5.1875 -3.78125 4.25 -4.109375 C 4.96875 -4.40625 5.328125 -4.96875 5.328125 -5.765625 C 5.328125 -7.125 4.4375 -7.953125 2.953125 -7.953125 C 1.390625 -7.953125 0.546875 -7.078125 0.515625 -5.390625 L 1.484375 -5.390625 C 1.5 -5.875 1.546875 -6.15625 1.65625 -6.390625 C 1.875 -6.84375 2.359375 -7.109375 2.96875 -7.109375 C 3.828125 -7.109375 4.34375 -6.59375 4.34375 -5.734375 C 4.34375 -5.171875 4.140625 -4.828125 3.71875 -4.640625 C 3.453125 -4.53125 3.109375 -4.484375 2.4375 -4.484375 Z M 2.4375 -3.65625 "/>
</symbol>
<symbol overflow="visible" id="glyph0-6">
<path style="stroke:none;" d="M 3.59375 -1.921875 L 3.59375 0 L 4.5625 0 L 4.5625 -1.921875 L 5.71875 -1.921875 L 5.71875 -2.796875 L 4.5625 -2.796875 L 4.5625 -7.953125 L 3.84375 -7.953125 L 0.3125 -2.953125 L 0.3125 -1.921875 Z M 3.59375 -2.796875 L 1.15625 -2.796875 L 3.59375 -6.296875 Z M 3.59375 -2.796875 "/>
</symbol>
<symbol overflow="visible" id="glyph0-7">
<path style="stroke:none;" d="M 3.03125 -7.953125 C 2.296875 -7.953125 1.640625 -7.625 1.234375 -7.078125 C 0.71875 -6.375 0.46875 -5.328125 0.46875 -3.84375 C 0.46875 -1.171875 1.359375 0.25 3.03125 0.25 C 4.671875 0.25 5.578125 -1.171875 5.578125 -3.78125 C 5.578125 -5.328125 5.328125 -6.359375 4.8125 -7.078125 C 4.40625 -7.640625 3.765625 -7.953125 3.03125 -7.953125 Z M 3.03125 -7.09375 C 4.0625 -7.09375 4.59375 -6.03125 4.59375 -3.875 C 4.59375 -1.609375 4.078125 -0.546875 3 -0.546875 C 1.984375 -0.546875 1.46875 -1.65625 1.46875 -3.84375 C 1.46875 -6.03125 1.984375 -7.09375 3.03125 -7.09375 Z M 3.03125 -7.09375 "/>
</symbol>
<symbol overflow="visible" id="glyph0-8">
<path style="stroke:none;" d="M 5.484375 -5.890625 C 5.296875 -7.1875 4.453125 -7.953125 3.265625 -7.953125 C 2.40625 -7.953125 1.640625 -7.53125 1.171875 -6.8125 C 0.6875 -6.03125 0.46875 -5.078125 0.46875 -3.625 C 0.46875 -2.28125 0.65625 -1.4375 1.140625 -0.734375 C 1.546875 -0.09375 2.234375 0.25 3.09375 0.25 C 4.578125 0.25 5.640625 -0.859375 5.640625 -2.40625 C 5.640625 -3.875 4.65625 -4.90625 3.25 -4.90625 C 2.484375 -4.90625 1.875 -4.625 1.46875 -4.03125 C 1.46875 -6 2.09375 -7.09375 3.203125 -7.09375 C 3.890625 -7.09375 4.359375 -6.65625 4.515625 -5.890625 Z M 3.140625 -4.046875 C 4.0625 -4.046875 4.65625 -3.390625 4.65625 -2.328125 C 4.65625 -1.328125 4 -0.609375 3.109375 -0.609375 C 2.203125 -0.609375 1.515625 -1.359375 1.515625 -2.375 C 1.515625 -3.359375 2.171875 -4.046875 3.140625 -4.046875 Z M 3.140625 -4.046875 "/>
</symbol>
<symbol overflow="visible" id="glyph0-9">
<path style="stroke:none;" d="M 5.71875 -7.796875 L 0.5 -7.796875 L 0.5 -6.84375 L 4.71875 -6.84375 C 2.859375 -4.1875 2.09375 -2.5625 1.515625 0 L 2.546875 0 C 2.984375 -2.5 3.953125 -4.640625 5.71875 -6.984375 Z M 5.71875 -7.796875 "/>
</symbol>
<symbol overflow="visible" id="glyph0-10">
<path style="stroke:none;" d="M 4.296875 -4.1875 C 5.109375 -4.6875 5.375 -5.078125 5.375 -5.828125 C 5.375 -7.078125 4.40625 -7.953125 3.03125 -7.953125 C 1.65625 -7.953125 0.6875 -7.078125 0.6875 -5.84375 C 0.6875 -5.078125 0.9375 -4.703125 1.734375 -4.1875 C 0.84375 -3.734375 0.40625 -3.09375 0.40625 -2.21875 C 0.40625 -0.765625 1.46875 0.25 3.03125 0.25 C 4.5625 0.25 5.640625 -0.765625 5.640625 -2.21875 C 5.640625 -3.09375 5.203125 -3.734375 4.296875 -4.1875 Z M 3.03125 -7.09375 C 3.84375 -7.09375 4.375 -6.59375 4.375 -5.8125 C 4.375 -5.0625 3.84375 -4.5625 3.03125 -4.5625 C 2.203125 -4.5625 1.671875 -5.0625 1.671875 -5.828125 C 1.671875 -6.59375 2.203125 -7.09375 3.03125 -7.09375 Z M 3.03125 -3.75 C 4 -3.75 4.65625 -3.109375 4.65625 -2.1875 C 4.65625 -1.234375 4 -0.609375 3 -0.609375 C 2.0625 -0.609375 1.390625 -1.25 1.390625 -2.171875 C 1.390625 -3.125 2.046875 -3.75 3.03125 -3.75 Z M 3.03125 -3.75 "/>
</symbol>
<symbol overflow="visible" id="glyph0-11">
<path style="stroke:none;" d="M 0.578125 -1.8125 C 0.765625 -0.515625 1.609375 0.25 2.796875 0.25 C 3.65625 0.25 4.4375 -0.171875 4.890625 -0.875 C 5.375 -1.65625 5.59375 -2.625 5.59375 -4.0625 C 5.59375 -5.40625 5.40625 -6.265625 4.9375 -6.96875 C 4.515625 -7.609375 3.828125 -7.953125 2.96875 -7.953125 C 1.484375 -7.953125 0.421875 -6.84375 0.421875 -5.296875 C 0.421875 -3.84375 1.40625 -2.8125 2.8125 -2.8125 C 3.546875 -2.8125 4.109375 -3.0625 4.59375 -3.671875 C 4.59375 -1.6875 3.96875 -0.609375 2.859375 -0.609375 C 2.171875 -0.609375 1.703125 -1.046875 1.546875 -1.8125 Z M 2.953125 -7.109375 C 3.859375 -7.109375 4.546875 -6.34375 4.546875 -5.328125 C 4.546875 -4.34375 3.890625 -3.65625 2.921875 -3.65625 C 1.984375 -3.65625 1.40625 -4.328125 1.40625 -5.375 C 1.40625 -6.375 2.0625 -7.109375 2.953125 -7.109375 Z M 2.953125 -7.109375 "/>
</symbol>
<symbol overflow="visible" id="glyph0-12">
<path style="stroke:none;" d="M 8.1875 0 L 10.21875 -8.015625 L 9.078125 -8.015625 L 7.59375 -1.5 L 5.78125 -8.015625 L 4.671875 -8.015625 L 2.890625 -1.5 L 1.390625 -8.015625 L 0.234375 -8.015625 L 2.296875 0 L 3.421875 0 L 5.21875 -6.59375 L 7.0625 0 Z M 8.1875 0 "/>
</symbol>
<symbol overflow="visible" id="glyph0-13">
<path style="stroke:none;" d="M 5.890625 -0.53125 C 5.78125 -0.515625 5.734375 -0.515625 5.6875 -0.515625 C 5.375 -0.515625 5.1875 -0.6875 5.1875 -0.96875 L 5.1875 -4.359375 C 5.1875 -5.375 4.4375 -5.921875 3.03125 -5.921875 C 2.171875 -5.921875 1.5 -5.6875 1.109375 -5.265625 C 0.84375 -4.96875 0.734375 -4.625 0.71875 -4.0625 L 1.640625 -4.0625 C 1.71875 -4.765625 2.140625 -5.078125 2.984375 -5.078125 C 3.828125 -5.078125 4.28125 -4.78125 4.28125 -4.21875 L 4.28125 -3.984375 C 4.265625 -3.59375 4.0625 -3.4375 3.328125 -3.34375 C 2.03125 -3.171875 1.828125 -3.140625 1.46875 -2.984375 C 0.796875 -2.703125 0.46875 -2.203125 0.46875 -1.453125 C 0.46875 -0.40625 1.1875 0.25 2.359375 0.25 C 3.078125 0.25 3.65625 0 4.3125 -0.59375 C 4.375 0 4.65625 0.25 5.265625 0.25 C 5.453125 0.25 5.578125 0.234375 5.890625 0.15625 Z M 4.28125 -1.8125 C 4.28125 -1.5 4.1875 -1.3125 3.921875 -1.0625 C 3.546875 -0.71875 3.09375 -0.546875 2.546875 -0.546875 C 1.84375 -0.546875 1.421875 -0.890625 1.421875 -1.46875 C 1.421875 -2.078125 1.8125 -2.390625 2.8125 -2.53125 C 3.78125 -2.65625 3.96875 -2.703125 4.28125 -2.84375 Z M 4.28125 -1.8125 "/>
</symbol>
<symbol overflow="visible" id="glyph0-14">
<path style="stroke:none;" d="M 1.65625 -5.765625 L 0.734375 -5.765625 L 0.734375 0 L 1.65625 0 Z M 1.65625 -8.015625 L 0.71875 -8.015625 L 0.71875 -6.859375 L 1.65625 -6.859375 Z M 1.65625 -8.015625 "/>
</symbol>
<symbol overflow="visible" id="glyph0-15">
<path style="stroke:none;" d="M 2.796875 -5.765625 L 1.84375 -5.765625 L 1.84375 -7.34375 L 0.9375 -7.34375 L 0.9375 -5.765625 L 0.15625 -5.765625 L 0.15625 -5.015625 L 0.9375 -5.015625 L 0.9375 -0.65625 C 0.9375 -0.0625 1.328125 0.25 2.046875 0.25 C 2.28125 0.25 2.484375 0.234375 2.796875 0.171875 L 2.796875 -0.59375 C 2.65625 -0.5625 2.546875 -0.546875 2.359375 -0.546875 C 1.953125 -0.546875 1.84375 -0.65625 1.84375 -1.0625 L 1.84375 -5.015625 L 2.796875 -5.015625 Z M 2.796875 -5.765625 "/>
</symbol>
<symbol overflow="visible" id="glyph0-16">
<path style="stroke:none;" d="M 0.765625 -5.765625 L 0.765625 0 L 1.6875 0 L 1.6875 -3.171875 C 1.6875 -4.359375 2.3125 -5.125 3.25 -5.125 C 3.984375 -5.125 4.4375 -4.6875 4.4375 -4 L 4.4375 0 L 5.359375 0 L 5.359375 -4.359375 C 5.359375 -5.3125 4.640625 -5.921875 3.53125 -5.921875 C 2.671875 -5.921875 2.125 -5.59375 1.609375 -4.796875 L 1.609375 -5.765625 Z M 0.765625 -5.765625 "/>
</symbol>
<symbol overflow="visible" id="glyph0-17">
<path style="stroke:none;" d="M 4.4375 -5.765625 L 4.4375 -4.921875 C 3.984375 -5.625 3.46875 -5.921875 2.75 -5.921875 C 1.359375 -5.921875 0.390625 -4.625 0.390625 -2.78125 C 0.390625 -1.8125 0.609375 -1.109375 1.109375 -0.53125 C 1.546875 -0.015625 2.09375 0.25 2.6875 0.25 C 3.375 0.25 3.875 -0.0625 4.359375 -0.78125 L 4.359375 -0.484375 C 4.359375 1.0625 3.921875 1.625 2.78125 1.625 C 2 1.625 1.59375 1.3125 1.5 0.65625 L 0.578125 0.65625 C 0.65625 1.734375 1.5 2.390625 2.765625 2.390625 C 3.609375 2.390625 4.3125 2.125 4.6875 1.65625 C 5.125 1.125 5.296875 0.40625 5.296875 -0.953125 L 5.296875 -5.765625 Z M 2.84375 -5.078125 C 3.8125 -5.078125 4.359375 -4.265625 4.359375 -2.8125 C 4.359375 -1.40625 3.796875 -0.59375 2.84375 -0.59375 C 1.890625 -0.59375 1.34375 -1.421875 1.34375 -2.84375 C 1.34375 -4.25 1.890625 -5.078125 2.84375 -5.078125 Z M 2.84375 -5.078125 "/>
</symbol>
<symbol overflow="visible" id="glyph1-0">
<path style="stroke:none;" d=""/>
</symbol>
<symbol overflow="visible" id="glyph1-1">
<path style="stroke:none;" d="M -3.65625 -2.015625 L -3.65625 -6.375 L -4.546875 -6.375 L -4.546875 -2.015625 L -7.109375 -2.015625 L -7.109375 -6.546875 L -8.015625 -6.546875 L -8.015625 -0.984375 L 0 -0.984375 L 0 -6.75 L -0.90625 -6.75 L -0.90625 -2.015625 Z M -3.65625 -2.015625 "/>
</symbol>
<symbol overflow="visible" id="glyph1-2">
<path style="stroke:none;" d="M -5.765625 -0.765625 L 0 -0.765625 L 0 -1.6875 L -2.984375 -1.6875 C -4.375 -1.6875 -5 -2.265625 -4.96875 -3.53125 L -5.890625 -3.53125 C -5.921875 -3.375 -5.921875 -3.28125 -5.921875 -3.171875 C -5.921875 -2.578125 -5.578125 -2.140625 -4.71875 -1.609375 L -5.765625 -1.609375 Z M -5.765625 -0.765625 "/>
</symbol>
<symbol overflow="visible" id="glyph1-3">
<path style="stroke:none;" d="M 0 -5.296875 L -5.765625 -5.296875 L -5.765625 -4.390625 L -2.5 -4.390625 C -1.3125 -4.390625 -0.546875 -3.765625 -0.546875 -2.8125 C -0.546875 -2.09375 -0.984375 -1.625 -1.6875 -1.625 L -5.765625 -1.625 L -5.765625 -0.71875 L -1.3125 -0.71875 C -0.359375 -0.71875 0.25 -1.4375 0.25 -2.546875 C 0.25 -3.40625 -0.046875 -3.9375 -0.796875 -4.484375 L 0 -4.484375 Z M 0 -5.296875 "/>
</symbol>
<symbol overflow="visible" id="glyph1-4">
<path style="stroke:none;" d="M 2.390625 -0.59375 L 2.390625 -1.515625 L -0.609375 -1.515625 C -0.015625 -2 0.25 -2.546875 0.25 -3.28125 C 0.25 -4.78125 -0.953125 -5.75 -2.78125 -5.75 C -4.71875 -5.75 -5.921875 -4.8125 -5.921875 -3.28125 C -5.921875 -2.5 -5.578125 -1.875 -4.890625 -1.4375 L -5.765625 -1.4375 L -5.765625 -0.59375 Z M -5.078125 -3.125 C -5.078125 -4.140625 -4.1875 -4.796875 -2.8125 -4.796875 C -1.5 -4.796875 -0.609375 -4.125 -0.609375 -3.125 C -0.609375 -2.140625 -1.484375 -1.515625 -2.84375 -1.515625 C -4.1875 -1.515625 -5.078125 -2.140625 -5.078125 -3.125 Z M -5.078125 -3.125 "/>
</symbol>
<symbol overflow="visible" id="glyph1-5">
<path style="stroke:none;" d="M -5.765625 -2.796875 L -5.765625 -1.84375 L -7.34375 -1.84375 L -7.34375 -0.9375 L -5.765625 -0.9375 L -5.765625 -0.15625 L -5.015625 -0.15625 L -5.015625 -0.9375 L -0.65625 -0.9375 C -0.0625 -0.9375 0.25 -1.328125 0.25 -2.046875 C 0.25 -2.28125 0.234375 -2.484375 0.171875 -2.796875 L -0.59375 -2.796875 C -0.5625 -2.65625 -0.546875 -2.546875 -0.546875 -2.359375 C -0.546875 -1.953125 -0.65625 -1.84375 -1.0625 -1.84375 L -5.015625 -1.84375 L -5.015625 -2.796875 Z M -5.765625 -2.796875 "/>
</symbol>
<symbol overflow="visible" id="glyph1-6">
<path style="stroke:none;" d="M -5.765625 -1.65625 L -5.765625 -0.734375 L 0 -0.734375 L 0 -1.65625 Z M -8.015625 -1.65625 L -8.015625 -0.71875 L -6.859375 -0.71875 L -6.859375 -1.65625 Z M -8.015625 -1.65625 "/>
</symbol>
<symbol overflow="visible" id="glyph1-7">
<path style="stroke:none;" d="M -5.921875 -2.984375 C -5.921875 -1.359375 -4.78125 -0.390625 -2.84375 -0.390625 C -0.890625 -0.390625 0.25 -1.359375 0.25 -3 C 0.25 -4.625 -0.90625 -5.609375 -2.796875 -5.609375 C -4.796875 -5.609375 -5.921875 -4.65625 -5.921875 -2.984375 Z M -5.078125 -3 C -5.078125 -4.03125 -4.234375 -4.65625 -2.8125 -4.65625 C -1.4375 -4.65625 -0.59375 -4.015625 -0.59375 -3 C -0.59375 -1.984375 -1.4375 -1.359375 -2.84375 -1.359375 C -4.234375 -1.359375 -5.078125 -1.984375 -5.078125 -3 Z M -5.078125 -3 "/>
</symbol>
<symbol overflow="visible" id="glyph1-8">
<path style="stroke:none;" d="M -5.765625 -0.765625 L 0 -0.765625 L 0 -1.6875 L -3.171875 -1.6875 C -4.359375 -1.6875 -5.125 -2.3125 -5.125 -3.25 C -5.125 -3.984375 -4.6875 -4.4375 -4 -4.4375 L 0 -4.4375 L 0 -5.359375 L -4.359375 -5.359375 C -5.3125 -5.359375 -5.921875 -4.640625 -5.921875 -3.53125 C -5.921875 -2.671875 -5.59375 -2.125 -4.796875 -1.609375 L -5.765625 -1.609375 Z M -5.765625 -0.765625 "/>
</symbol>
<symbol overflow="visible" id="glyph1-9">
<path style="stroke:none;" d="M -4.15625 -4.8125 C -5.296875 -4.8125 -5.921875 -4.0625 -5.921875 -2.734375 C -5.921875 -1.390625 -5.234375 -0.515625 -4.171875 -0.515625 C -3.265625 -0.515625 -2.84375 -0.984375 -2.515625 -2.34375 L -2.296875 -3.203125 C -2.140625 -3.84375 -1.90625 -4.09375 -1.5 -4.09375 C -0.953125 -4.09375 -0.59375 -3.546875 -0.59375 -2.75 C -0.59375 -2.25 -0.734375 -1.84375 -0.984375 -1.609375 C -1.140625 -1.46875 -1.3125 -1.390625 -1.71875 -1.34375 L -1.71875 -0.375 C -0.390625 -0.421875 0.25 -1.171875 0.25 -2.671875 C 0.25 -4.125 -0.46875 -5.046875 -1.578125 -5.046875 C -2.4375 -5.046875 -2.90625 -4.5625 -3.171875 -3.421875 L -3.390625 -2.546875 C -3.5625 -1.796875 -3.8125 -1.46875 -4.21875 -1.46875 C -4.75 -1.46875 -5.078125 -1.953125 -5.078125 -2.6875 C -5.078125 -3.4375 -4.765625 -3.828125 -4.15625 -3.84375 Z M -4.15625 -4.8125 "/>
</symbol>
</g>
</defs>
<g id="surface84">
<rect x="0" y="0" width="525" height="324" style="fill:rgb(100%,100%,100%);fill-opacity:1;stroke:none;"/>
<path style="fill:none;stroke-width:0.711319;stroke-linecap:round;stroke-linejoin:round;stroke:rgb(100%,100%,100%);stroke-opacity:1;stroke-miterlimit:10;" d="M 0 324 L 525 324 L 525 0 L 0 0 Z M 0 324 "/>
<path style="fill-rule:nonzero;fill:rgb(100%,100%,100%);fill-opacity:1;stroke-width:0.711319;stroke-linecap:round;stroke-linejoin:round;stroke:rgb(100%,100%,100%);stroke-opacity:1;stroke-miterlimit:10;" d="M 52.609375 278.855469 L 503.082031 278.855469 L 503.082031 21.917969 L 52.609375 21.917969 Z M 52.609375 278.855469 "/>
<path style="fill:none;stroke-width:0.355659;stroke-linecap:square;stroke-linejoin:round;stroke:rgb(90.196078%,92.54902%,94.901961%);stroke-opacity:1;stroke-miterlimit:10;" d="M 52.609375 278.855469 L 503.082031 278.855469 "/>
<path style="fill:none;stroke-width:0.355659;stroke-linecap:square;stroke-linejoin:round;stroke:rgb(90.196078%,92.54902%,94.901961%);stroke-opacity:1;stroke-miterlimit:10;" d="M 52.609375 246.738281 L 503.082031 246.738281 "/>
<path style="fill:none;stroke-width:0.355659;stroke-linecap:square;stroke-linejoin:round;stroke:rgb(90.196078%,92.54902%,94.901961%);stroke-opacity:1;stroke-miterlimit:10;" d="M 52.609375 214.621094 L 503.082031 214.621094 "/>
<path style="fill:none;stroke-width:0.355659;stroke-linecap:square;stroke-linejoin:round;stroke:rgb(90.196078%,92.54902%,94.901961%);stroke-opacity:1;stroke-miterlimit:10;" d="M 52.609375 182.503906 L 503.082031 182.503906 "/>
<path style="fill:none;stroke-width:0.355659;stroke-linecap:square;stroke-linejoin:round;stroke:rgb(90.196078%,92.54902%,94.901961%);stroke-opacity:1;stroke-miterlimit:10;" d="M 52.609375 150.386719 L 503.082031 150.386719 "/>
<path style="fill:none;stroke-width:0.355659;stroke-linecap:square;stroke-linejoin:round;stroke:rgb(90.196078%,92.54902%,94.901961%);stroke-opacity:1;stroke-miterlimit:10;" d="M 52.609375 118.269531 L 503.082031 118.269531 "/>
<path style="fill:none;stroke-width:0.355659;stroke-linecap:square;stroke-linejoin:round;stroke:rgb(90.196078%,92.54902%,94.901961%);stroke-opacity:1;stroke-miterlimit:10;" d="M 52.609375 86.152344 L 503.082031 86.152344 "/>
<path style="fill:none;stroke-width:0.355659;stroke-linecap:square;stroke-linejoin:round;stroke:rgb(90.196078%,92.54902%,94.901961%);stroke-opacity:1;stroke-miterlimit:10;" d="M 52.609375 54.035156 L 503.082031 54.035156 "/>
<path style="fill:none;stroke-width:0.355659;stroke-linecap:square;stroke-linejoin:round;stroke:rgb(90.196078%,92.54902%,94.901961%);stroke-opacity:1;stroke-miterlimit:10;" d="M 52.609375 21.917969 L 503.082031 21.917969 "/>
<path style="fill:none;stroke-width:1.066978;stroke-linecap:butt;stroke-linejoin:round;stroke:rgb(20.784314%,48.235294%,63.529412%);stroke-opacity:1;stroke-miterlimit:10;" d="M 378.980469 29.128906 L 374.789062 29.027344 L 370.597656 28.988281 L 366.410156 29.019531 L 362.21875 29.125 L 358.027344 29.304688 L 353.839844 29.574219 L 352.296875 29.703125 L 349.648438 29.910156 L 345.457031 30.324219 L 341.265625 30.847656 L 337.078125 31.496094 L 332.886719 32.285156 L 332.824219 32.300781 L 328.695312 33.140625 L 324.503906 34.171875 L 321.976562 34.894531 L 320.316406 35.355469 L 316.125 36.683594 L 313.910156 37.488281 L 311.933594 38.199219 L 307.746094 39.921875 L 307.386719 40.085938 L 303.554688 41.824219 L 301.863281 42.679688 L 299.363281 43.976562 L 297.066406 45.277344 L 295.171875 46.390625 L 292.824219 47.871094 L 290.984375 49.09375 L 289.019531 50.464844 L 286.792969 52.132812 L 285.585938 53.0625 L 282.601562 55.558594 L 282.484375 55.65625 L 279.582031 58.253906 L 278.410156 59.402344 L 276.929688 60.847656 L 274.515625 63.441406 L 274.222656 63.78125 L 272.203125 66.039062 L 270.136719 68.632812 L 270.03125 68.777344 L 268.109375 71.230469 L 266.292969 73.824219 L 265.839844 74.519531 L 264.523438 76.417969 L 262.890625 79.015625 L 261.652344 81.1875 L 261.390625 81.609375 L 259.890625 84.207031 L 258.535156 86.800781 L 257.460938 89.0625 L 257.289062 89.394531 L 256.03125 91.992188 L 254.890625 94.585938 L 253.859375 97.183594 L 253.269531 98.820312 L 252.886719 99.777344 L 251.949219 102.371094 L 251.117188 104.96875 L 250.382812 107.5625 L 249.742188 110.160156 L 249.199219 112.753906 L 249.078125 113.441406 L 248.710938 115.347656 L 248.320312 117.945312 L 248.035156 120.539062 L 247.863281 123.136719 L 247.808594 125.730469 L 247.875 128.324219 L 248.070312 130.921875 L 248.414062 133.515625 L 248.910156 136.113281 L 249.078125 136.800781 L 249.554688 138.707031 L 250.386719 141.300781 L 251.445312 143.898438 L 252.769531 146.492188 L 253.269531 147.335938 L 254.386719 149.089844 L 256.390625 151.683594 L 257.460938 152.867188 L 258.894531 154.277344 L 261.652344 156.5625 L 262.085938 156.875 L 265.839844 159.21875 L 266.328125 159.46875 L 270.03125 161.199219 L 272.378906 162.066406 L 274.222656 162.695312 L 278.410156 163.851562 L 282.199219 164.660156 L 282.601562 164.742188 L 286.792969 165.484375 L 290.984375 166.082031 L 295.171875 166.574219 L 299.363281 166.988281 L 302.441406 167.253906 L 303.554688 167.355469 L 307.746094 167.699219 L 311.933594 168.007812 L 316.125 168.292969 L 320.316406 168.550781 L 324.503906 168.789062 L 328.695312 169.003906 L 332.886719 169.199219 L 337.078125 169.363281 L 341.265625 169.5 L 345.457031 169.601562 L 349.648438 169.664062 L 353.839844 169.675781 L 358.027344 169.640625 L 362.21875 169.539062 L 366.410156 169.367188 L 370.597656 169.117188 L 374.789062 168.769531 L 378.980469 168.316406 L 383.171875 167.742188 L 386.050781 167.253906 L 387.359375 167.046875 L 391.550781 166.246094 L 395.742188 165.273438 L 398.003906 164.660156 L 399.933594 164.152344 L 404.121094 162.871094 L 406.421875 162.066406 L 408.3125 161.410156 L 412.503906 159.75 L 413.152344 159.46875 L 416.691406 157.925781 L 418.863281 156.875 L 420.882812 155.886719 L 423.898438 154.277344 L 425.074219 153.640625 L 428.449219 151.683594 L 429.265625 151.199219 L 432.648438 149.089844 L 433.453125 148.570312 L 436.578125 146.492188 L 437.644531 145.757812 L 440.292969 143.898438 L 441.835938 142.773438 L 443.828125 141.300781 L 446.027344 139.613281 L 447.199219 138.707031 L 450.214844 136.265625 L 450.410156 136.113281 L 453.53125 133.515625 L 454.40625 132.75 L 456.515625 130.921875 L 458.597656 128.992188 L 459.324219 128.324219 L 462.011719 125.730469 L 462.785156 124.925781 L 464.554688 123.136719 L 466.882812 120.539062 L 466.976562 120.425781 L 469.125 117.945312 L 471.113281 115.347656 L 471.167969 115.269531 L 473.015625 112.753906 L 474.683594 110.160156 L 475.359375 108.980469 L 476.207031 107.5625 L 477.578125 104.96875 L 478.746094 102.371094 L 479.546875 100.273438 L 479.75 99.777344 L 480.644531 97.183594 L 481.363281 94.585938 L 481.914062 91.992188 L 482.300781 89.394531 L 482.535156 86.800781 L 482.605469 84.207031 L 482.515625 81.609375 L 482.257812 79.015625 L 481.816406 76.417969 L 481.179688 73.824219 L 480.328125 71.230469 L 479.546875 69.359375 L 479.257812 68.632812 L 477.992188 66.039062 L 476.425781 63.441406 L 475.359375 61.949219 L 474.574219 60.847656 L 472.417969 58.253906 L 471.167969 56.960938 L 469.886719 55.65625 L 466.976562 53.105469 L 466.925781 53.0625 L 463.535156 50.464844 L 462.785156 49.953125 L 459.585938 47.871094 L 458.597656 47.28125 L 454.984375 45.277344 L 454.40625 44.976562 L 450.214844 42.953125 L 449.601562 42.679688 L 446.027344 41.152344 L 443.234375 40.085938 L 441.835938 39.5625 L 437.644531 38.136719 L 435.523438 37.488281 L 433.453125 36.859375 L 429.265625 35.714844 L 425.84375 34.894531 L 425.074219 34.707031 L 420.882812 33.773438 L 416.691406 32.964844 L 412.695312 32.300781 L 412.503906 32.265625 L 408.3125 31.605469 L 404.121094 31.039062 L 399.933594 30.558594 L 395.742188 30.152344 L 391.550781 29.820312 L 389.757812 29.703125 L 387.359375 29.53125 L 383.171875 29.296875 L 378.980469 29.128906 "/>
<path style="fill:none;stroke-width:1.066978;stroke-linecap:butt;stroke-linejoin:round;stroke:rgb(20.784314%,48.235294%,63.529412%);stroke-opacity:1;stroke-miterlimit:10;" d="M 236.496094 278.855469 L 236.507812 278.84375 L 240.640625 276.257812 L 240.699219 276.21875 L 244.308594 273.664062 L 244.890625 273.207031 L 247.5625 271.066406 L 249.078125 269.707031 L 250.445312 268.472656 L 252.992188 265.878906 L 253.269531 265.5625 L 255.316406 263.28125 L 257.320312 260.6875 L 257.460938 260.484375 L 259.164062 258.089844 L 260.75 255.496094 L 261.652344 253.769531 L 262.128906 252.902344 L 263.351562 250.304688 L 264.359375 247.710938 L 265.164062 245.113281 L 265.777344 242.519531 L 265.839844 242.132812 L 266.238281 239.925781 L 266.5 237.328125 L 266.5625 234.734375 L 266.421875 232.136719 L 266.066406 229.542969 L 265.839844 228.511719 L 265.507812 226.949219 L 264.742188 224.351562 L 263.730469 221.757812 L 262.453125 219.160156 L 261.652344 217.785156 L 260.917969 216.566406 L 259.105469 213.972656 L 257.460938 211.964844 L 256.949219 211.375 L 254.417969 208.78125 L 253.269531 207.722656 L 251.40625 206.183594 L 249.078125 204.445312 L 247.761719 203.589844 L 244.890625 201.855469 L 243.175781 200.996094 L 240.699219 199.804688 L 237.007812 198.398438 L 236.507812 198.214844 L 232.316406 196.921875 L 228.128906 195.953125 L 227.34375 195.804688 L 223.9375 195.152344 L 219.746094 194.523438 L 215.558594 194.035156 L 211.367188 193.644531 L 207.175781 193.332031 L 205.238281 193.207031 L 202.984375 193.058594 L 198.796875 192.820312 L 194.605469 192.625 L 190.414062 192.464844 L 186.226562 192.34375 L 182.035156 192.261719 L 177.84375 192.222656 L 173.652344 192.230469 L 169.464844 192.300781 L 165.273438 192.429688 L 161.082031 192.632812 L 156.890625 192.914062 L 153.566406 193.207031 L 152.703125 193.277344 L 148.511719 193.695312 L 144.320312 194.207031 L 140.132812 194.816406 L 135.941406 195.539062 L 134.597656 195.804688 L 131.75 196.324219 L 127.558594 197.203125 L 123.371094 198.210938 L 122.664062 198.398438 L 119.179688 199.277344 L 114.988281 200.476562 L 113.347656 200.996094 L 110.796875 201.769531 L 106.609375 203.199219 L 105.558594 203.589844 L 102.417969 204.734375 L 98.863281 206.183594 L 98.226562 206.445312 L 94.039062 208.289062 L 93.011719 208.78125 L 89.847656 210.320312 L 87.847656 211.375 L 85.65625 212.574219 L 83.273438 213.972656 L 81.464844 215.089844 L 79.203125 216.566406 L 77.277344 217.921875 L 75.582031 219.160156 L 73.085938 221.167969 "/>
<path style="fill:none;stroke-width:1.066978;stroke-linecap:butt;stroke-linejoin:round;stroke:rgb(20.784314%,48.235294%,63.529412%);stroke-opacity:1;stroke-miterlimit:10;" d="M 73.246094 278.855469 L 73.085938 278.734375 "/>
<path style="fill:none;stroke-width:1.066978;stroke-linecap:butt;stroke-linejoin:round;stroke:rgb(20.784314%,48.235294%,63.529412%);stroke-opacity:1;stroke-miterlimit:10;" d="M 391.550781 42.128906 L 387.359375 41.6875 L 383.171875 41.339844 L 378.980469 41.082031 L 374.789062 40.917969 L 370.597656 40.84375 L 366.410156 40.855469 L 362.21875 40.964844 L 358.027344 41.171875 L 353.839844 41.488281 L 349.648438 41.921875 L 345.457031 42.484375 L 344.269531 42.679688 L 341.265625 43.15625 L 337.078125 43.96875 L 332.886719 44.957031 L 331.71875 45.277344 L 328.695312 46.09375 L 324.503906 47.425781 L 323.277344 47.871094 L 320.316406 48.953125 L 316.722656 50.464844 L 316.125 50.722656 L 311.933594 52.738281 L 311.324219 53.0625 L 307.746094 55.042969 L 306.726562 55.65625 L 303.554688 57.6875 L 302.726562 58.253906 L 299.363281 60.726562 L 299.207031 60.847656 L 296.054688 63.441406 L 295.171875 64.238281 L 293.222656 66.039062 L 290.984375 68.335938 L 290.695312 68.632812 L 288.363281 71.230469 L 286.792969 73.199219 L 286.285156 73.824219 L 284.359375 76.417969 L 282.65625 79.015625 L 282.601562 79.105469 L 281.042969 81.609375 L 279.617188 84.207031 L 278.410156 86.683594 L 278.351562 86.800781 L 277.15625 89.394531 L 276.109375 91.992188 L 275.210938 94.585938 L 274.441406 97.183594 L 274.222656 98.082031 L 273.773438 99.777344 L 273.222656 102.371094 L 272.816406 104.96875 L 272.554688 107.5625 L 272.441406 110.160156 L 272.484375 112.753906 L 272.703125 115.347656 L 273.105469 117.945312 L 273.71875 120.539062 L 274.222656 122.113281 L 274.546875 123.136719 L 275.609375 125.730469 L 276.972656 128.324219 L 278.410156 130.53125 L 278.675781 130.921875 L 280.742188 133.515625 L 282.601562 135.4375 L 283.296875 136.113281 L 286.417969 138.707031 L 286.792969 138.984375 L 290.261719 141.300781 L 290.984375 141.730469 L 295.0625 143.898438 L 295.171875 143.953125 L 299.363281 145.800781 L 301.167969 146.492188 L 303.554688 147.359375 L 307.746094 148.6875 L 309.171875 149.089844 L 311.933594 149.839844 L 316.125 150.839844 L 320.257812 151.683594 L 320.316406 151.695312 L 324.503906 152.464844 L 328.695312 153.117188 L 332.886719 153.667969 L 337.078125 154.121094 L 338.855469 154.277344 L 341.265625 154.5 L 345.457031 154.789062 L 349.648438 154.988281 L 353.839844 155.089844 L 358.027344 155.085938 L 362.21875 154.980469 L 366.410156 154.757812 L 370.597656 154.40625 L 371.726562 154.277344 L 374.789062 153.941406 L 378.980469 153.34375 L 383.171875 152.582031 L 387.1875 151.683594 L 387.359375 151.644531 L 391.550781 150.570312 L 395.742188 149.28125 L 396.292969 149.089844 L 399.933594 147.820312 L 403.238281 146.492188 L 404.121094 146.136719 L 408.3125 144.246094 L 409.015625 143.898438 L 412.503906 142.140625 L 414.027344 141.300781 L 416.691406 139.800781 L 418.507812 138.707031 L 420.882812 137.226562 L 422.589844 136.113281 L 425.074219 134.417969 L 426.347656 133.515625 L 429.265625 131.355469 L 429.835938 130.921875 L 433.101562 128.324219 L 433.453125 128.03125 L 436.179688 125.730469 L 437.644531 124.402344 L 439.046875 123.136719 L 441.703125 120.539062 L 441.835938 120.402344 L 444.21875 117.945312 L 446.027344 115.882812 L 446.503906 115.347656 L 448.632812 112.753906 L 450.214844 110.578125 L 450.527344 110.160156 L 452.277344 107.5625 L 453.789062 104.96875 L 454.40625 103.738281 L 455.121094 102.371094 L 456.265625 99.777344 L 457.195312 97.183594 L 457.910156 94.585938 L 458.425781 91.992188 L 458.597656 90.542969 L 458.742188 89.394531 L 458.851562 86.800781 L 458.734375 84.207031 L 458.597656 83.175781 L 458.394531 81.609375 L 457.828125 79.015625 L 457.003906 76.417969 L 455.898438 73.824219 L 454.476562 71.230469 L 454.40625 71.117188 L 452.78125 68.632812 L 450.691406 66.039062 L 450.214844 65.53125 L 448.222656 63.441406 L 446.027344 61.488281 L 445.277344 60.847656 L 441.835938 58.277344 L 441.800781 58.253906 L 437.695312 55.65625 L 437.644531 55.628906 L 433.453125 53.382812 L 432.800781 53.0625 L 429.265625 51.445312 L 426.878906 50.464844 L 425.074219 49.761719 L 420.882812 48.296875 L 419.527344 47.871094 L 416.691406 47.003906 L 412.503906 45.882812 L 409.925781 45.277344 L 408.3125 44.898438 L 404.121094 44.03125 L 399.933594 43.296875 L 395.761719 42.679688 L 395.742188 42.675781 L 391.550781 42.128906 "/>
<path style="fill:none;stroke-width:1.066978;stroke-linecap:butt;stroke-linejoin:round;stroke:rgb(20.784314%,48.235294%,63.529412%);stroke-opacity:1;stroke-miterlimit:10;" d="M 197.875 278.855469 L 198.796875 278.570312 L 202.984375 277.152344 L 205.351562 276.257812 L 207.175781 275.53125 L 211.367188 273.679688 L 211.398438 273.664062 L 215.558594 271.539062 L 216.40625 271.066406 L 219.746094 269.039062 L 220.625 268.472656 L 223.9375 266.082031 L 224.207031 265.878906 L 227.261719 263.28125 L 228.128906 262.429688 L 229.863281 260.6875 L 232.042969 258.089844 L 232.316406 257.707031 L 233.886719 255.496094 L 235.378906 252.902344 L 236.507812 250.386719 L 236.546875 250.304688 L 237.433594 247.710938 L 238.011719 245.113281 L 238.289062 242.519531 L 238.257812 239.925781 L 237.902344 237.328125 L 237.207031 234.734375 L 236.507812 233.023438 L 236.136719 232.136719 L 234.660156 229.542969 L 232.695312 226.949219 L 232.316406 226.539062 L 230.164062 224.351562 L 228.128906 222.664062 L 226.925781 221.757812 L 223.9375 219.828125 L 222.777344 219.160156 L 219.746094 217.621094 L 217.355469 216.566406 L 215.558594 215.839844 L 211.367188 214.378906 L 210.015625 213.972656 L 207.175781 213.15625 L 202.984375 212.128906 L 199.335938 211.375 L 198.796875 211.265625 L 194.605469 210.519531 L 190.414062 209.898438 L 186.226562 209.382812 L 182.035156 208.964844 L 179.679688 208.78125 L 177.84375 208.632812 L 173.652344 208.382812 L 169.464844 208.226562 L 165.273438 208.164062 L 161.082031 208.195312 L 156.890625 208.324219 L 152.703125 208.5625 L 150.074219 208.78125 L 148.511719 208.902344 L 144.320312 209.34375 L 140.132812 209.902344 L 135.941406 210.585938 L 131.925781 211.375 L 131.75 211.410156 L 127.558594 212.339844 L 123.371094 213.429688 L 121.542969 213.972656 L 119.179688 214.671875 L 114.988281 216.082031 L 113.707031 216.566406 L 110.796875 217.683594 L 107.382812 219.160156 L 106.609375 219.511719 L 102.417969 221.589844 L 102.109375 221.757812 L 98.226562 223.992188 L 97.652344 224.351562 L 94.039062 226.8125 L 93.847656 226.949219 L 90.601562 229.542969 L 89.847656 230.230469 L 87.835938 232.136719 L 85.65625 234.578125 L 85.523438 234.734375 L 83.589844 237.328125 L 82.050781 239.925781 L 81.464844 241.203125 L 80.859375 242.519531 L 80.007812 245.113281 L 79.496094 247.710938 L 79.320312 250.304688 L 79.480469 252.902344 L 79.992188 255.496094 L 80.871094 258.089844 L 81.464844 259.328125 L 82.125 260.6875 L 83.789062 263.28125 L 85.65625 265.554688 L 85.929688 265.878906 L 88.585938 268.472656 L 89.847656 269.515625 L 91.863281 271.066406 L 94.039062 272.523438 L 95.894531 273.664062 L 98.226562 274.941406 L 100.90625 276.257812 L 102.417969 276.941406 L 106.609375 278.617188 L 107.28125 278.855469 "/>
<path style="fill:none;stroke-width:1.066978;stroke-linecap:butt;stroke-linejoin:round;stroke:rgb(20.784314%,48.235294%,63.529412%);stroke-opacity:1;stroke-miterlimit:10;" d="M 362.21875 49.578125 L 358.027344 49.820312 L 353.839844 50.199219 L 351.679688 50.464844 L 349.648438 50.714844 L 345.457031 51.375 L 341.265625 52.203125 L 337.742188 53.0625 L 337.078125 53.222656 L 332.886719 54.425781 L 329.285156 55.65625 L 328.695312 55.863281 L 324.503906 57.539062 L 322.941406 58.253906 L 320.316406 59.503906 L 317.804688 60.847656 L 316.125 61.804688 L 313.496094 63.441406 L 311.933594 64.496094 L 309.804688 66.039062 L 307.746094 67.671875 L 306.59375 68.632812 L 303.789062 71.230469 L 303.554688 71.464844 L 301.296875 73.824219 L 299.363281 76.117188 L 299.113281 76.417969 L 297.15625 79.015625 L 295.457031 81.609375 L 295.171875 82.101562 L 293.9375 84.207031 L 292.617188 86.800781 L 291.5 89.394531 L 290.984375 90.824219 L 290.542969 91.992188 L 289.746094 94.585938 L 289.132812 97.183594 L 288.691406 99.777344 L 288.433594 102.371094 L 288.355469 104.96875 L 288.476562 107.5625 L 288.808594 110.160156 L 289.371094 112.753906 L 290.1875 115.347656 L 290.984375 117.246094 L 291.285156 117.945312 L 292.683594 120.539062 L 294.457031 123.136719 L 295.171875 124.015625 L 296.648438 125.730469 L 299.351562 128.324219 L 299.363281 128.335938 L 302.671875 130.921875 L 303.554688 131.523438 L 306.777344 133.515625 L 307.746094 134.054688 L 311.914062 136.113281 L 311.933594 136.121094 L 316.125 137.839844 L 318.578125 138.707031 L 320.316406 139.289062 L 324.503906 140.515625 L 327.699219 141.300781 L 328.695312 141.542969 L 332.886719 142.410156 L 337.078125 143.117188 L 341.265625 143.679688 L 343.429688 143.898438 L 345.457031 144.105469 L 349.648438 144.402344 L 353.839844 144.5625 L 358.027344 144.585938 L 362.21875 144.464844 L 366.410156 144.195312 L 369.347656 143.898438 L 370.597656 143.773438 L 374.789062 143.199219 L 378.980469 142.445312 L 383.171875 141.496094 L 383.894531 141.300781 L 387.359375 140.371094 L 391.550781 139.019531 L 392.40625 138.707031 L 395.742188 137.460938 L 398.898438 136.113281 L 399.933594 135.660156 L 404.121094 133.609375 L 404.296875 133.515625 L 408.3125 131.300781 L 408.949219 130.921875 L 412.503906 128.703125 L 413.074219 128.324219 L 416.691406 125.800781 L 416.789062 125.730469 L 420.164062 123.136719 L 420.882812 122.542969 L 423.25 120.539062 L 425.074219 118.867188 L 426.0625 117.945312 L 428.625 115.347656 L 429.265625 114.640625 L 430.964844 112.753906 L 433.050781 110.160156 L 433.453125 109.597656 L 434.9375 107.5625 L 436.574219 104.96875 L 437.644531 102.980469 L 437.980469 102.371094 L 439.179688 99.777344 L 440.132812 97.183594 L 440.84375 94.585938 L 441.308594 91.992188 L 441.53125 89.394531 L 441.496094 86.800781 L 441.199219 84.207031 L 440.617188 81.609375 L 439.730469 79.015625 L 438.507812 76.417969 L 437.644531 74.996094 L 436.929688 73.824219 L 434.957031 71.230469 L 433.453125 69.601562 L 432.527344 68.632812 L 429.574219 66.039062 L 429.265625 65.800781 L 426 63.441406 L 425.074219 62.855469 L 421.648438 60.847656 L 420.882812 60.445312 L 416.691406 58.429688 L 416.285156 58.253906 L 412.503906 56.726562 L 409.472656 55.65625 L 408.3125 55.269531 L 404.121094 54.023438 L 400.3125 53.0625 L 399.933594 52.96875 L 395.742188 52.0625 L 391.550781 51.3125 L 387.359375 50.703125 L 385.304688 50.464844 L 383.171875 50.21875 L 378.980469 49.847656 L 374.789062 49.597656 L 370.597656 49.46875 L 366.410156 49.460938 L 362.21875 49.578125 "/>
<path style="fill:none;stroke-width:1.066978;stroke-linecap:butt;stroke-linejoin:round;stroke:rgb(20.784314%,48.235294%,63.529412%);stroke-opacity:1;stroke-miterlimit:10;" d="M 182.035156 221.492188 L 177.84375 220.851562 L 173.652344 220.359375 L 169.464844 220.007812 L 165.273438 219.789062 L 161.082031 219.703125 L 156.890625 219.75 L 152.703125 219.933594 L 148.511719 220.257812 L 144.320312 220.726562 L 140.132812 221.355469 L 137.992188 221.757812 L 135.941406 222.152344 L 131.75 223.128906 L 127.558594 224.304688 L 127.414062 224.351562 L 123.371094 225.722656 L 120.261719 226.949219 L 119.179688 227.40625 L 114.988281 229.421875 L 114.761719 229.542969 L 110.796875 231.894531 L 110.421875 232.136719 L 106.941406 234.734375 L 106.609375 235.023438 L 104.167969 237.328125 L 102.417969 239.378906 L 101.976562 239.925781 L 100.347656 242.519531 L 99.210938 245.113281 L 98.558594 247.710938 L 98.382812 250.304688 L 98.695312 252.902344 L 99.515625 255.496094 L 100.878906 258.089844 L 102.417969 260.15625 L 102.839844 260.6875 L 105.53125 263.28125 L 106.609375 264.121094 L 109.101562 265.878906 L 110.796875 266.882812 L 113.835938 268.472656 L 114.988281 269 L 119.179688 270.671875 L 120.347656 271.066406 L 123.371094 272.003906 L 127.558594 273.082031 L 130.355469 273.664062 L 131.75 273.9375 L 135.941406 274.59375 L 140.132812 275.078125 L 144.320312 275.40625 L 148.511719 275.585938 L 152.703125 275.625 L 156.890625 275.523438 L 161.082031 275.28125 L 165.273438 274.90625 L 169.464844 274.386719 L 173.652344 273.726562 L 173.976562 273.664062 L 177.84375 272.894531 L 182.035156 271.894531 L 185.019531 271.066406 L 186.226562 270.710938 L 190.414062 269.292969 L 192.5625 268.472656 L 194.605469 267.613281 L 198.3125 265.878906 L 198.796875 265.621094 L 202.84375 263.28125 L 202.984375 263.1875 L 206.46875 260.6875 L 207.175781 260.082031 L 209.375 258.089844 L 211.367188 255.863281 L 211.683594 255.496094 L 213.4375 252.902344 L 214.699219 250.304688 L 215.492188 247.710938 L 215.558594 247.179688 L 215.8125 245.113281 L 215.65625 242.519531 L 215.558594 242.113281 L 214.992188 239.925781 L 213.769531 237.328125 L 211.929688 234.734375 L 211.367188 234.136719 L 209.3125 232.136719 L 207.175781 230.511719 L 205.746094 229.542969 L 202.984375 227.984375 L 200.875 226.949219 L 198.796875 226.058594 L 194.605469 224.523438 L 194.058594 224.351562 L 190.414062 223.304688 L 186.226562 222.300781 L 183.460938 221.757812 L 182.035156 221.492188 "/>
<path style="fill:none;stroke-width:1.066978;stroke-linecap:butt;stroke-linejoin:round;stroke:rgb(20.784314%,48.235294%,63.529412%);stroke-opacity:1;stroke-miterlimit:10;" d="M 378.980469 57.53125 L 374.789062 57.179688 L 370.597656 56.984375 L 366.410156 56.941406 L 362.21875 57.054688 L 358.027344 57.328125 L 353.839844 57.769531 L 350.570312 58.253906 L 349.648438 58.390625 L 345.457031 59.199219 L 341.265625 60.21875 L 339.136719 60.847656 L 337.078125 61.476562 L 332.886719 62.996094 L 331.824219 63.441406 L 328.695312 64.832031 L 326.3125 66.039062 L 324.503906 67.027344 L 321.867188 68.632812 L 320.316406 69.667969 L 318.171875 71.230469 L 316.125 72.886719 L 315.039062 73.824219 L 312.367188 76.417969 L 311.933594 76.894531 L 310.078125 79.015625 L 308.117188 81.609375 L 307.746094 82.179688 L 306.441406 84.207031 L 305.035156 86.800781 L 303.878906 89.394531 L 303.554688 90.308594 L 302.949219 91.992188 L 302.246094 94.585938 L 301.773438 97.183594 L 301.527344 99.777344 L 301.519531 102.371094 L 301.757812 104.96875 L 302.261719 107.5625 L 303.054688 110.160156 L 303.554688 111.34375 L 304.167969 112.753906 L 305.644531 115.347656 L 307.53125 117.945312 L 307.746094 118.191406 L 309.925781 120.539062 L 311.933594 122.335938 L 312.917969 123.136719 L 316.125 125.386719 L 316.671875 125.730469 L 320.316406 127.757812 L 321.484375 128.324219 L 324.503906 129.664062 L 327.855469 130.921875 L 328.695312 131.214844 L 332.886719 132.476562 L 337.078125 133.492188 L 337.195312 133.515625 L 341.265625 134.292969 L 345.457031 134.898438 L 349.648438 135.3125 L 353.839844 135.546875 L 358.027344 135.601562 L 362.21875 135.476562 L 366.410156 135.171875 L 370.597656 134.675781 L 374.789062 133.976562 L 376.921875 133.515625 L 378.980469 133.066406 L 383.171875 131.9375 L 386.296875 130.921875 L 387.359375 130.566406 L 391.550781 128.941406 L 392.941406 128.324219 L 395.742188 127.035156 L 398.265625 125.730469 L 399.933594 124.824219 L 402.757812 123.136719 L 404.121094 122.269531 L 406.648438 120.539062 L 408.3125 119.3125 L 410.070312 117.945312 L 412.503906 115.875 L 413.097656 115.347656 L 415.777344 112.753906 L 416.691406 111.765625 L 418.152344 110.160156 L 420.222656 107.5625 L 420.882812 106.613281 L 422.019531 104.96875 L 423.539062 102.371094 L 424.773438 99.777344 L 425.074219 98.972656 L 425.75 97.183594 L 426.441406 94.585938 L 426.847656 91.992188 L 426.953125 89.394531 L 426.75 86.800781 L 426.21875 84.207031 L 425.328125 81.609375 L 425.074219 81.078125 L 424.0625 79.015625 L 422.363281 76.417969 L 420.882812 74.640625 L 420.171875 73.824219 L 417.414062 71.230469 L 416.691406 70.65625 L 413.953125 68.632812 L 412.503906 67.710938 L 409.601562 66.039062 L 408.3125 65.378906 L 404.121094 63.476562 L 404.035156 63.441406 L 399.933594 61.929688 L 396.46875 60.847656 L 395.742188 60.632812 L 391.550781 59.578125 L 387.359375 58.71875 L 384.5 58.253906 L 383.171875 58.042969 L 378.980469 57.53125 "/>
<path style="fill:none;stroke-width:1.066978;stroke-linecap:butt;stroke-linejoin:round;stroke:rgb(20.784314%,48.235294%,63.529412%);stroke-opacity:1;stroke-miterlimit:10;" d="M 169.464844 232.054688 L 165.273438 231.539062 L 161.082031 231.25 L 156.890625 231.183594 L 152.703125 231.332031 L 148.511719 231.707031 L 145.484375 232.136719 L 144.320312 232.320312 L 140.132812 233.242188 L 135.941406 234.433594 L 135.082031 234.734375 L 131.75 236.082031 L 129.164062 237.328125 L 127.558594 238.269531 L 125.128906 239.925781 L 123.371094 241.480469 L 122.328125 242.519531 L 120.535156 245.113281 L 119.5625 247.710938 L 119.425781 250.304688 L 120.152344 252.902344 L 121.796875 255.496094 L 123.371094 257.066406 L 124.5625 258.089844 L 127.558594 259.972656 L 128.933594 260.6875 L 131.75 261.851562 L 135.941406 263.222656 L 136.183594 263.28125 L 140.132812 264.121094 L 144.320312 264.734375 L 148.511719 265.09375 L 152.703125 265.210938 L 156.890625 265.097656 L 161.082031 264.753906 L 165.273438 264.183594 L 169.464844 263.390625 L 169.910156 263.28125 L 173.652344 262.246094 L 177.84375 260.824219 L 178.1875 260.6875 L 182.035156 258.859375 L 183.441406 258.089844 L 186.226562 256.1875 L 187.132812 255.496094 L 189.660156 252.902344 L 190.414062 251.707031 L 191.238281 250.304688 L 191.949219 247.710938 L 191.832031 245.113281 L 190.839844 242.519531 L 190.414062 241.933594 L 188.757812 239.925781 L 186.226562 237.902344 L 185.378906 237.328125 L 182.035156 235.617188 L 179.925781 234.734375 L 177.84375 234.023438 L 173.652344 232.886719 L 169.945312 232.136719 L 169.464844 232.054688 "/>
<path style="fill:none;stroke-width:1.066978;stroke-linecap:butt;stroke-linejoin:round;stroke:rgb(20.784314%,48.235294%,63.529412%);stroke-opacity:1;stroke-miterlimit:10;" d="M 383.171875 65.8125 L 378.980469 65.082031 L 374.789062 64.574219 L 370.597656 64.273438 L 366.410156 64.175781 L 362.21875 64.285156 L 358.027344 64.597656 L 353.839844 65.128906 L 349.648438 65.886719 L 348.996094 66.039062 L 345.457031 66.910156 L 341.265625 68.210938 L 340.136719 68.632812 L 337.078125 69.859375 L 334.183594 71.230469 L 332.886719 71.902344 L 329.648438 73.824219 L 328.695312 74.457031 L 326.042969 76.417969 L 324.503906 77.71875 L 323.09375 79.015625 L 320.660156 81.609375 L 320.316406 82.042969 L 318.683594 84.207031 L 317.074219 86.800781 L 316.125 88.71875 L 315.800781 89.394531 L 314.855469 91.992188 L 314.210938 94.585938 L 313.867188 97.183594 L 313.824219 99.777344 L 314.097656 102.371094 L 314.707031 104.96875 L 315.675781 107.5625 L 316.125 108.4375 L 317.078125 110.160156 L 318.957031 112.753906 L 320.316406 114.25 L 321.421875 115.347656 L 324.503906 117.875 L 324.601562 117.945312 L 328.695312 120.476562 L 328.816406 120.539062 L 332.886719 122.445312 L 334.6875 123.136719 L 337.078125 123.972656 L 341.265625 125.148438 L 344.007812 125.730469 L 345.457031 126.023438 L 349.648438 126.621094 L 353.839844 126.976562 L 358.027344 127.097656 L 362.21875 126.988281 L 366.410156 126.640625 L 370.597656 126.058594 L 372.28125 125.730469 L 374.789062 125.226562 L 378.980469 124.125 L 382.011719 123.136719 L 383.171875 122.742188 L 387.359375 121.039062 L 388.425781 120.539062 L 391.550781 118.976562 L 393.378906 117.945312 L 395.742188 116.5 L 397.449219 115.347656 L 399.933594 113.511719 L 400.878906 112.753906 L 403.789062 110.160156 L 404.121094 109.824219 L 406.246094 107.5625 L 408.3125 104.988281 L 408.328125 104.96875 L 410.03125 102.371094 L 411.390625 99.777344 L 412.410156 97.183594 L 412.503906 96.832031 L 413.085938 94.585938 L 413.410156 91.992188 L 413.367188 89.394531 L 412.941406 86.800781 L 412.503906 85.425781 L 412.097656 84.207031 L 410.78125 81.609375 L 408.953125 79.015625 L 408.3125 78.304688 L 406.480469 76.417969 L 404.121094 74.476562 L 403.246094 73.824219 L 399.933594 71.757812 L 398.964844 71.230469 L 395.742188 69.695312 L 393.109375 68.632812 L 391.550781 68.070312 L 387.359375 66.800781 L 384.1875 66.039062 L 383.171875 65.8125 "/>
<path style="fill:none;stroke-width:1.066978;stroke-linecap:butt;stroke-linejoin:round;stroke:rgb(20.784314%,48.235294%,63.529412%);stroke-opacity:1;stroke-miterlimit:10;" d="M 378.980469 73.496094 L 374.789062 72.683594 L 370.597656 72.179688 L 366.410156 71.976562 L 362.21875 72.066406 L 358.027344 72.449219 L 353.839844 73.128906 L 350.890625 73.824219 L 349.648438 74.144531 L 345.457031 75.574219 L 343.46875 76.417969 L 341.265625 77.476562 L 338.589844 79.015625 L 337.078125 80.023438 L 335.011719 81.609375 L 332.886719 83.5625 L 332.257812 84.207031 L 330.199219 86.800781 L 328.695312 89.265625 L 328.621094 89.394531 L 327.578125 91.992188 L 326.953125 94.585938 L 326.75 97.183594 L 326.980469 99.777344 L 327.667969 102.371094 L 328.695312 104.652344 L 328.855469 104.96875 L 330.71875 107.5625 L 332.886719 109.816406 L 333.273438 110.160156 L 336.917969 112.753906 L 337.078125 112.847656 L 341.265625 114.898438 L 342.46875 115.347656 L 345.457031 116.339844 L 349.648438 117.328125 L 353.839844 117.945312 L 353.84375 117.945312 L 358.027344 118.191406 L 362.21875 118.125 L 364.226562 117.945312 L 366.410156 117.738281 L 370.597656 117.011719 L 374.789062 115.960938 L 376.648438 115.347656 L 378.980469 114.515625 L 382.96875 112.753906 L 383.171875 112.65625 L 387.359375 110.230469 L 387.472656 110.160156 L 390.929688 107.5625 L 391.550781 107.019531 L 393.664062 104.96875 L 395.742188 102.523438 L 395.859375 102.371094 L 397.46875 99.777344 L 398.632812 97.183594 L 399.339844 94.585938 L 399.570312 91.992188 L 399.296875 89.394531 L 398.480469 86.800781 L 397.070312 84.207031 L 395.742188 82.515625 L 394.9375 81.609375 L 391.871094 79.015625 L 391.550781 78.796875 L 387.421875 76.417969 L 387.359375 76.390625 L 383.171875 74.726562 L 380.210938 73.824219 L 378.980469 73.496094 "/>
<path style="fill:none;stroke-width:1.066978;stroke-linecap:butt;stroke-linejoin:round;stroke:rgb(20.784314%,48.235294%,63.529412%);stroke-opacity:1;stroke-miterlimit:10;" d="M 370.597656 83.046875 L 366.410156 82.4375 L 362.21875 82.433594 L 358.027344 83.015625 L 353.839844 84.167969 L 353.742188 84.207031 L 349.648438 86.308594 L 348.917969 86.800781 L 346.0625 89.394531 L 345.457031 90.230469 L 344.417969 91.992188 L 343.691406 94.585938 L 343.785156 97.183594 L 344.746094 99.777344 L 345.457031 100.769531 L 346.972656 102.371094 L 349.648438 104.242188 L 351.199219 104.96875 L 353.839844 105.902344 L 358.027344 106.675781 L 362.21875 106.789062 L 366.410156 106.285156 L 370.597656 105.199219 L 371.183594 104.96875 L 374.789062 103.238281 L 376.144531 102.371094 L 378.980469 100.027344 L 379.226562 99.777344 L 380.964844 97.183594 L 381.871094 94.585938 L 381.875 91.992188 L 380.902344 89.394531 L 378.980469 86.964844 L 378.808594 86.800781 L 374.789062 84.335938 L 374.46875 84.207031 L 370.597656 83.046875 "/>
<path style="fill:none;stroke-width:0.711319;stroke-linecap:square;stroke-linejoin:round;stroke:rgb(7.058824%,10.588235%,14.117647%);stroke-opacity:1;stroke-miterlimit:10;" d="M 52.609375 278.855469 L 52.609375 21.917969 "/>
<g style="fill:rgb(7.058824%,10.588235%,14.117647%);fill-opacity:1;">
  <use xlink:href="#glyph0-1" x="32.679688" y="282.374023"/>
  <use xlink:href="#glyph0-2" x="38.679688" y="282.374023"/>
  <use xlink:href="#glyph0-3" x="41.679688" y="282.374023"/>
</g>
<g style="fill:rgb(7.058824%,10.588235%,14.117647%);fill-opacity:1;">
  <use xlink:href="#glyph0-4" x="41.679688" y="250.256836"/>
</g>
<g style="fill:rgb(7.058824%,10.588235%,14.117647%);fill-opacity:1;">
  <use xlink:href="#glyph0-4" x="32.679688" y="218.139648"/>
  <use xlink:href="#glyph0-2" x="38.679688" y="218.139648"/>
  <use xlink:href="#glyph0-3" x="41.679688" y="218.139648"/>
</g>
<g style="fill:rgb(7.058824%,10.588235%,14.117647%);fill-opacity:1;">
  <use xlink:href="#glyph0-5" x="41.679688" y="186.022461"/>
</g>
<g style="fill:rgb(7.058824%,10.588235%,14.117647%);fill-opacity:1;">
  <use xlink:href="#glyph0-5" x="32.679688" y="153.905273"/>
  <use xlink:href="#glyph0-2" x="38.679688" y="153.905273"/>
  <use xlink:href="#glyph0-3" x="41.679688" y="153.905273"/>
</g>
<g style="fill:rgb(7.058824%,10.588235%,14.117647%);fill-opacity:1;">
  <use xlink:href="#glyph0-6" x="41.679688" y="121.788086"/>
</g>
<g style="fill:rgb(7.058824%,10.588235%,14.117647%);fill-opacity:1;">
  <use xlink:href="#glyph0-6" x="32.679688" y="89.670898"/>
  <use xlink:href="#glyph0-2" x="38.679688" y="89.670898"/>
  <use xlink:href="#glyph0-3" x="41.679688" y="89.670898"/>
</g>
<g style="fill:rgb(7.058824%,10.588235%,14.117647%);fill-opacity:1;">
  <use xlink:href="#glyph0-3" x="41.679688" y="57.553711"/>
</g>
<g style="fill:rgb(7.058824%,10.588235%,14.117647%);fill-opacity:1;">
  <use xlink:href="#glyph0-3" x="32.679688" y="25.436523"/>
  <use xlink:href="#glyph0-2" x="38.679688" y="25.436523"/>
  <use xlink:href="#glyph0-3" x="41.679688" y="25.436523"/>
</g>
<path style="fill:none;stroke-width:0.711319;stroke-linecap:square;stroke-linejoin:round;stroke:rgb(7.058824%,10.588235%,14.117647%);stroke-opacity:1;stroke-miterlimit:10;" d="M 49.871094 278.855469 L 52.609375 278.855469 "/>
<path style="fill:none;stroke-width:0.711319;stroke-linecap:square;stroke-linejoin:round;stroke:rgb(7.058824%,10.588235%,14.117647%);stroke-opacity:1;stroke-miterlimit:10;" d="M 49.871094 246.738281 L 52.609375 246.738281 "/>
<path style="fill:none;stroke-width:0.711319;stroke-linecap:square;stroke-linejoin:round;stroke:rgb(7.058824%,10.588235%,14.117647%);stroke-opacity:1;stroke-miterlimit:10;" d="M 49.871094 214.621094 L 52.609375 214.621094 "/>
<path style="fill:none;stroke-width:0.711319;stroke-linecap:square;stroke-linejoin:round;stroke:rgb(7.058824%,10.588235%,14.117647%);stroke-opacity:1;stroke-miterlimit:10;" d="M 49.871094 182.503906 L 52.609375 182.503906 "/>
<path style="fill:none;stroke-width:0.711319;stroke-linecap:square;stroke-linejoin:round;stroke:rgb(7.058824%,10.588235%,14.117647%);stroke-opacity:1;stroke-miterlimit:10;" d="M 49.871094 150.386719 L 52.609375 150.386719 "/>
<path style="fill:none;stroke-width:0.711319;stroke-linecap:square;stroke-linejoin:round;stroke:rgb(7.058824%,10.588235%,14.117647%);stroke-opacity:1;stroke-miterlimit:10;" d="M 49.871094 118.269531 L 52.609375 118.269531 "/>
<path style="fill:none;stroke-width:0.711319;stroke-linecap:square;stroke-linejoin:round;stroke:rgb(7.058824%,10.588235%,14.117647%);stroke-opacity:1;stroke-miterlimit:10;" d="M 49.871094 86.152344 L 52.609375 86.152344 "/>
<path style="fill:none;stroke-width:0.711319;stroke-linecap:square;stroke-linejoin:round;stroke:rgb(7.058824%,10.588235%,14.117647%);stroke-opacity:1;stroke-miterlimit:10;" d="M 49.871094 54.035156 L 52.609375 54.035156 "/>
<path style="fill:none;stroke-width:0.711319;stroke-linecap:square;stroke-linejoin:round;stroke:rgb(7.058824%,10.588235%,14.117647%);stroke-opacity:1;stroke-miterlimit:10;" d="M 49.871094 21.917969 L 52.609375 21.917969 "/>
<path style="fill:none;stroke-width:0.711319;stroke-linecap:square;stroke-linejoin:round;stroke:rgb(7.058824%,10.588235%,14.117647%);stroke-opacity:1;stroke-miterlimit:10;" d="M 52.609375 278.855469 L 503.082031 278.855469 "/>
<path style="fill:none;stroke-width:0.711319;stroke-linecap:square;stroke-linejoin:round;stroke:rgb(7.058824%,10.588235%,14.117647%);stroke-opacity:1;stroke-miterlimit:10;" d="M 127.875 282.507812 L 127.875 278.855469 "/>
<path style="fill:none;stroke-width:0.711319;stroke-linecap:square;stroke-linejoin:round;stroke:rgb(7.058824%,10.588235%,14.117647%);stroke-opacity:1;stroke-miterlimit:10;" d="M 206.148438 282.507812 L 206.148438 278.855469 "/>
<path style="fill:none;stroke-width:0.711319;stroke-linecap:square;stroke-linejoin:round;stroke:rgb(7.058824%,10.588235%,14.117647%);stroke-opacity:1;stroke-miterlimit:10;" d="M 284.421875 282.507812 L 284.421875 278.855469 "/>
<path style="fill:none;stroke-width:0.711319;stroke-linecap:square;stroke-linejoin:round;stroke:rgb(7.058824%,10.588235%,14.117647%);stroke-opacity:1;stroke-miterlimit:10;" d="M 362.691406 282.507812 L 362.691406 278.855469 "/>
<path style="fill:none;stroke-width:0.711319;stroke-linecap:square;stroke-linejoin:round;stroke:rgb(7.058824%,10.588235%,14.117647%);stroke-opacity:1;stroke-miterlimit:10;" d="M 440.964844 282.507812 L 440.964844 278.855469 "/>
<g style="fill:rgb(7.058824%,10.588235%,14.117647%);fill-opacity:1;">
  <use xlink:href="#glyph0-3" x="121.875" y="292.717773"/>
  <use xlink:href="#glyph0-7" x="127.875" y="292.717773"/>
</g>
<g style="fill:rgb(7.058824%,10.588235%,14.117647%);fill-opacity:1;">
  <use xlink:href="#glyph0-8" x="200.148438" y="292.717773"/>
  <use xlink:href="#glyph0-7" x="206.148438" y="292.717773"/>
</g>
<g style="fill:rgb(7.058824%,10.588235%,14.117647%);fill-opacity:1;">
  <use xlink:href="#glyph0-9" x="278.421875" y="292.717773"/>
  <use xlink:href="#glyph0-7" x="284.421875" y="292.717773"/>
</g>
<g style="fill:rgb(7.058824%,10.588235%,14.117647%);fill-opacity:1;">
  <use xlink:href="#glyph0-10" x="356.691406" y="292.717773"/>
  <use xlink:href="#glyph0-7" x="362.691406" y="292.717773"/>
</g>
<g style="fill:rgb(7.058824%,10.588235%,14.117647%);fill-opacity:1;">
  <use xlink:href="#glyph0-11" x="434.964844" y="292.717773"/>
  <use xlink:href="#glyph0-7" x="440.964844" y="292.717773"/>
</g>
<g style="fill:rgb(7.058824%,10.588235%,14.117647%);fill-opacity:1;">
  <use xlink:href="#glyph0-12" x="260.347656" y="311.061523"/>
  <use xlink:href="#glyph0-13" x="270.347656" y="311.061523"/>
  <use xlink:href="#glyph0-14" x="276.347656" y="311.061523"/>
  <use xlink:href="#glyph0-15" x="278.347656" y="311.061523"/>
  <use xlink:href="#glyph0-14" x="281.347656" y="311.061523"/>
  <use xlink:href="#glyph0-16" x="283.347656" y="311.061523"/>
  <use xlink:href="#glyph0-17" x="289.347656" y="311.061523"/>
</g>
<g style="fill:rgb(7.058824%,10.588235%,14.117647%);fill-opacity:1;">
  <use xlink:href="#glyph1-1" x="17.237305" y="172.886719"/>
  <use xlink:href="#glyph1-2" x="17.237305" y="165.886719"/>
  <use xlink:href="#glyph1-3" x="17.237305" y="161.886719"/>
  <use xlink:href="#glyph1-4" x="17.237305" y="155.886719"/>
  <use xlink:href="#glyph1-5" x="17.237305" y="149.886719"/>
  <use xlink:href="#glyph1-6" x="17.237305" y="146.886719"/>
  <use xlink:href="#glyph1-7" x="17.237305" y="144.886719"/>
  <use xlink:href="#glyph1-8" x="17.237305" y="138.886719"/>
  <use xlink:href="#glyph1-9" x="17.237305" y="132.886719"/>
</g>
</g>
</svg>
